<svg xmlns="http://www.w3.org/2000/svg" width="64" height="48" viewBox="0 0 64 48">
  <!-- Matrix brackets -->
  <g stroke="#333" stroke-width="2" fill="none">
    <!-- Left bracket -->
    <path d="M 12 6 L 8 6 L 8 42 L 12 42"/>
    <!-- Right bracket -->
    <path d="M 52 6 L 56 6 L 56 42 L 52 42"/>
  </g>
  
  <!-- Grid pattern (3×3) -->
  <g stroke="#666" stroke-width="1.5" fill="none" opacity="0.7">
    <!-- Vertical lines -->
    <line x1="22" y1="12" x2="22" y2="36"/>
    <line x1="30" y1="12" x2="30" y2="36"/>
    <line x1="38" y1="12" x2="38" y2="36"/>
    <line x1="46" y1="12" x2="46" y2="36"/>
    
    <!-- Horizontal lines -->
    <line x1="14" y1="18" x2="50" y2="18"/>
    <line x1="14" y1="24" x2="50" y2="24"/>
    <line x1="14" y1="30" x2="50" y2="30"/>
    <line x1="14" y1="36" x2="50" y2="36"/>
  </g>
  
  <!-- Plus icon in bottom right corner -->
  <g transform="translate(50, 36)">
    <circle cx="0" cy="0" r="7" fill="#4CAF50" stroke="white" stroke-width="1.5"/>
    <g stroke="white" stroke-width="2" stroke-linecap="round">
      <line x1="-3" y1="0" x2="3" y2="0"/>
      <line x1="0" y1="-3" x2="0" y2="3"/>
    </g>
  </g>
</svg>

