<svg xmlns="http://www.w3.org/2000/svg" viewBox="0 0 459.0 433.0">
  <defs>
    <linearGradient id="keyGradient" x1="0%" y1="0%" x2="100%" y2="100%">
      <stop offset="0%" style="stop-color:#667eea;stop-opacity:1" />
      <stop offset="100%" style="stop-color:#764ba2;stop-opacity:1" />
    </linearGradient>
  </defs>
  <path d="M0.0,324.0 L96.0,359.0 L78.0,347.0 L58.5,327.5 L44.5,304.5 L36.5,277.5 L35.5,244.5 L38.5,230.5 L49.5,203.5 L66.5,180.5 L88.0,163.0 L117.0,150.0 L144.0,146.0 L161.0,147.0 L176.0,151.0 L186.0,148.0 L191.5,139.5 L193.5,121.5 L206.0,109.0 L237.0,122.0 L253.0,117.0 L257.0,117.0 L263.0,122.0 L278.0,120.0 L280.5,117.5 L279.5,106.5 L296.5,62.5 L300.0,59.0 L309.0,61.0 L322.0,43.0 L346.0,39.0 L364.0,1.0 L436.0,0.0 L441.5,4.5 L441.5,11.5 L433.5,53.5 L259.5,214.5 L255.5,225.5 L259.5,256.5 L255.5,288.5 L245.5,312.5 L232.5,331.5 L208.0,353.0 L180.0,366.0 L155.0,371.0 L120.5,367.5 L301.0,433.0 L457.5,5.5 L458.5,1.5 L456.5,0.5 L459.0,0.0 Z" fill="url(#keyGradient)" />
</svg>

