<svg xmlns="http://www.w3.org/2000/svg" width="459.0" height="433.0" viewBox="0 0 459.0 433.0">
  <path d="M0.0,324.0 L1.0,324.0 L1.5,324.5 L2.0,325.0 L3.0,325.0 L4.0,325.0 L4.5,325.5 L5.0,326.0 L6.0,326.0 L7.0,326.0 L7.5,326.5 L8.0,327.0 L9.0,327.0 L10.0,327.0 L10.5,327.5 L11.0,328.0 L12.0,328.0 L12.5,328.5 L13.0,329.0 L14.0,329.0 L15.0,329.0 L15.5,329.5 L16.0,330.0 L17.0,330.0 L18.0,330.0 L18.5,330.5 L19.0,331.0 L20.0,331.0 L21.0,331.0 L21.5,331.5 L22.0,332.0 L23.0,332.0 L23.5,332.5 L24.0,333.0 L25.0,333.0 L26.0,333.0 L26.5,333.5 L27.0,334.0 L28.0,334.0 L29.0,334.0 L29.5,334.5 L30.0,335.0 L31.0,335.0 L32.0,335.0 L32.5,335.5 L33.0,336.0 L34.0,336.0 L34.5,336.5 L35.0,337.0 L36.0,337.0 L37.0,337.0 L37.5,337.5 L38.0,338.0 L39.0,338.0 L40.0,338.0 L40.5,338.5 L41.0,339.0 L42.0,339.0 L43.0,339.0 L43.5,339.5 L44.0,340.0 L45.0,340.0 L45.5,340.5 L46.0,341.0 L47.0,341.0 L48.0,341.0 L48.5,341.5 L49.0,342.0 L50.0,342.0 L51.0,342.0 L51.5,342.5 L52.0,343.0 L53.0,343.0 L54.0,343.0 L54.5,343.5 L55.0,344.0 L56.0,344.0 L56.5,344.5 L57.0,345.0 L58.0,345.0 L59.0,345.0 L59.5,345.5 L60.0,346.0 L61.0,346.0 L62.0,346.0 L62.5,346.5 L63.0,347.0 L64.0,347.0 L65.0,347.0 L65.5,347.5 L66.0,348.0 L67.0,348.0 L67.5,348.5 L68.0,349.0 L69.0,349.0 L70.0,349.0 L70.5,349.5 L71.0,350.0 L72.0,350.0 L73.0,350.0 L73.5,350.5 L74.0,351.0 L75.0,351.0 L76.0,351.0 L76.5,351.5 L77.0,352.0 L78.0,352.0 L78.5,352.5 L79.0,353.0 L80.0,353.0 L81.0,353.0 L81.5,353.5 L82.0,354.0 L83.0,354.0 L84.0,354.0 L84.5,354.5 L85.0,355.0 L86.0,355.0 L87.0,355.0 L87.5,355.5 L88.0,356.0 L89.0,356.0 L89.5,356.5 L90.0,357.0 L91.0,357.0 L92.0,357.0 L92.5,357.5 L93.0,358.0 L94.0,358.0 L95.0,358.0 L95.5,358.5 L96.0,359.0 L96.5,358.5 L96.0,358.0 L95.5,357.5 L95.0,357.0 L94.0,357.0 L93.0,357.0 L92.5,356.5 L92.0,356.0 L91.0,356.0 L90.5,355.5 L90.5,354.5 L90.0,354.0 L89.0,354.0 L88.0,354.0 L87.5,353.5 L87.5,352.5 L87.0,352.0 L86.0,352.0 L85.0,352.0 L84.5,351.5 L84.5,350.5 L84.0,350.0 L83.0,350.0 L82.5,349.5 L82.0,349.0 L81.0,349.0 L80.5,348.5 L80.0,348.0 L79.5,347.5 L79.0,347.0 L78.0,347.0 L77.5,346.5 L77.5,345.5 L77.0,345.0 L76.5,344.5 L76.0,344.0 L75.0,344.0 L74.5,343.5 L74.0,343.0 L73.5,342.5 L73.0,342.0 L72.5,341.5 L72.0,341.0 L71.5,340.5 L71.0,340.0 L70.0,340.0 L69.5,339.5 L69.5,338.5 L69.0,338.0 L68.5,337.5 L68.0,337.0 L67.5,336.5 L67.0,336.0 L66.0,336.0 L65.5,335.5 L65.0,335.0 L64.5,334.5 L64.5,333.5 L64.0,333.0 L63.5,332.5 L63.0,332.0 L62.5,331.5 L62.5,330.5 L62.0,330.0 L61.0,330.0 L60.5,329.5 L60.0,329.0 L59.5,328.5 L59.0,328.0 L58.5,327.5 L58.5,326.5 L58.0,326.0 L57.5,325.5 L57.0,325.0 L56.5,324.5 L56.5,323.5 L56.0,323.0 L55.5,322.5 L55.5,321.5 L55.0,321.0 L54.5,320.5 L54.0,320.0 L53.5,319.5 L53.0,319.0 L52.5,318.5 L52.5,317.5 L52.0,317.0 L51.5,316.5 L51.0,316.0 L50.5,315.5 L50.5,314.5 L50.5,313.5 L50.0,313.0 L49.5,312.5 L49.0,312.0 L48.5,311.5 L48.5,310.5 L48.0,310.0 L47.5,309.5 L47.0,309.0 L46.5,308.5 L47.0,308.0 L47.5,307.5 L47.0,307.0 L46.5,306.5 L46.0,306.0 L45.5,305.5 L45.0,305.0 L44.5,304.5 L44.5,303.5 L44.5,302.5 L44.5,301.5 L44.5,300.5 L44.0,300.0 L43.5,299.5 L43.0,299.0 L42.5,298.5 L42.5,297.5 L42.0,297.0 L41.5,296.5 L41.5,295.5 L41.5,294.5 L41.5,293.5 L41.0,293.0 L40.5,292.5 L40.5,291.5 L40.5,290.5 L40.0,290.0 L39.5,289.5 L40.0,289.0 L40.5,288.5 L40.0,288.0 L39.5,287.5 L39.0,287.0 L38.5,286.5 L39.0,286.0 L39.5,285.5 L39.0,285.0 L38.5,284.5 L38.5,283.5 L38.5,282.5 L38.5,281.5 L38.0,281.0 L37.5,280.5 L37.5,279.5 L37.5,278.5 L37.0,278.0 L36.5,277.5 L37.0,277.0 L37.5,276.5 L37.0,276.0 L36.5,275.5 L36.5,274.5 L37.0,274.0 L37.5,273.5 L37.0,273.0 L36.5,272.5 L36.5,271.5 L36.5,270.5 L36.5,269.5 L36.0,269.0 L35.5,268.5 L36.0,268.0 L36.5,267.5 L36.0,267.0 L35.5,266.5 L35.5,265.5 L35.5,264.5 L35.5,263.5 L35.5,262.5 L36.0,262.0 L36.5,261.5 L36.0,261.0 L35.5,260.5 L35.5,259.5 L35.5,258.5 L35.5,257.5 L35.5,256.5 L35.5,255.5 L35.5,254.5 L35.5,253.5 L36.0,253.0 L36.5,252.5 L36.0,252.0 L35.5,251.5 L35.5,250.5 L36.0,250.0 L36.5,249.5 L36.0,249.0 L35.5,248.5 L35.5,247.5 L36.0,247.0 L36.5,246.5 L36.5,245.5 L36.0,245.0 L35.5,244.5 L36.0,244.0 L36.5,243.5 L36.5,242.5 L37.0,242.0 L37.5,241.5 L37.5,240.5 L37.5,239.5 L37.5,238.5 L37.5,237.5 L37.5,236.5 L38.0,236.0 L38.5,235.5 L38.5,234.5 L38.5,233.5 L39.0,233.0 L39.5,232.5 L39.0,232.0 L38.5,231.5 L38.5,230.5 L39.0,230.0 L39.5,229.5 L39.5,228.5 L39.5,227.5 L40.0,227.0 L40.5,226.5 L40.5,225.5 L41.0,225.0 L41.5,224.5 L41.5,223.5 L41.5,222.5 L42.0,222.0 L42.5,221.5 L42.5,220.5 L42.5,219.5 L43.0,219.0 L43.5,218.5 L43.5,217.5 L43.5,216.5 L44.0,216.0 L44.5,215.5 L44.5,214.5 L45.0,214.0 L45.5,213.5 L45.5,212.5 L45.5,211.5 L46.0,211.0 L46.5,210.5 L47.0,210.0 L47.5,209.5 L47.5,208.5 L48.0,208.0 L48.5,207.5 L48.5,206.5 L49.0,206.0 L49.5,205.5 L49.5,204.5 L49.5,203.5 L50.0,203.0 L50.5,202.5 L51.0,202.0 L51.5,201.5 L51.5,200.5 L52.0,200.0 L52.5,199.5 L52.5,198.5 L53.0,198.0 L54.0,198.0 L54.5,197.5 L54.5,196.5 L54.5,195.5 L55.0,195.0 L56.0,195.0 L56.5,194.5 L56.5,193.5 L56.5,192.5 L57.0,192.0 L58.0,192.0 L58.5,191.5 L58.5,190.5 L59.0,190.0 L59.5,189.5 L59.5,188.5 L60.0,188.0 L60.5,187.5 L61.0,187.0 L62.0,187.0 L62.5,186.5 L62.5,185.5 L63.0,185.0 L64.0,185.0 L64.5,184.5 L64.5,183.5 L65.0,183.0 L65.5,182.5 L66.0,182.0 L66.5,181.5 L66.5,180.5 L67.0,180.0 L68.0,180.0 L68.5,179.5 L69.0,179.0 L69.5,178.5 L70.0,178.0 L70.5,177.5 L71.0,177.0 L71.5,176.5 L71.5,175.5 L72.0,175.0 L73.0,175.0 L73.5,174.5 L74.0,174.0 L74.5,173.5 L75.0,173.0 L75.5,172.5 L76.0,172.0 L77.0,172.0 L77.5,171.5 L77.5,170.5 L78.0,170.0 L79.0,170.0 L80.0,170.0 L80.5,169.5 L80.5,168.5 L81.0,168.0 L82.0,168.0 L83.0,168.0 L83.5,167.5 L83.5,166.5 L84.0,166.0 L84.5,165.5 L85.0,165.0 L86.0,165.0 L87.0,165.0 L87.5,164.5 L87.5,163.5 L88.0,163.0 L89.0,163.0 L90.0,163.0 L90.5,162.5 L91.0,162.0 L91.5,161.5 L92.0,161.0 L93.0,161.0 L93.5,160.5 L94.0,160.0 L94.5,159.5 L95.0,159.0 L96.0,159.0 L97.0,159.0 L97.5,158.5 L98.0,158.0 L99.0,158.0 L99.5,157.5 L100.0,157.0 L100.5,156.5 L101.0,156.0 L101.5,156.5 L102.0,157.0 L102.5,156.5 L103.0,156.0 L103.5,155.5 L104.0,155.0 L104.5,154.5 L105.0,154.0 L106.0,154.0 L107.0,154.0 L107.5,154.5 L108.0,155.0 L108.5,154.5 L109.0,154.0 L109.5,153.5 L110.0,153.0 L110.5,152.5 L111.0,152.0 L112.0,152.0 L113.0,152.0 L114.0,152.0 L115.0,152.0 L115.5,151.5 L116.0,151.0 L116.5,150.5 L117.0,150.0 L117.5,150.5 L118.0,151.0 L119.0,151.0 L119.5,150.5 L120.0,150.0 L121.0,150.0 L122.0,150.0 L122.5,149.5 L123.0,149.0 L124.0,149.0 L125.0,149.0 L126.0,149.0 L127.0,149.0 L128.0,149.0 L128.5,148.5 L129.0,148.0 L130.0,148.0 L131.0,148.0 L131.5,147.5 L132.0,147.0 L132.5,147.5 L133.0,148.0 L134.0,148.0 L134.5,147.5 L135.0,147.0 L135.5,147.5 L136.0,148.0 L136.5,147.5 L137.0,147.0 L138.0,147.0 L139.0,147.0 L140.0,147.0 L141.0,147.0 L142.0,147.0 L143.0,147.0 L143.5,146.5 L144.0,146.0 L144.5,146.5 L145.0,147.0 L146.0,147.0 L147.0,147.0 L148.0,147.0 L149.0,147.0 L150.0,147.0 L151.0,147.0 L152.0,147.0 L152.5,146.5 L153.0,146.0 L153.5,146.5 L154.0,147.0 L155.0,147.0 L155.5,147.5 L156.0,148.0 L156.5,147.5 L157.0,147.0 L158.0,147.0 L158.5,147.5 L159.0,148.0 L160.0,148.0 L160.5,147.5 L161.0,147.0 L161.5,147.5 L162.0,148.0 L163.0,148.0 L164.0,148.0 L164.5,148.5 L165.0,149.0 L165.5,148.5 L166.0,148.0 L167.0,148.0 L167.5,148.5 L168.0,149.0 L169.0,149.0 L170.0,149.0 L170.5,149.5 L171.0,150.0 L171.5,149.5 L172.0,149.0 L173.0,149.0 L173.5,149.5 L174.0,150.0 L175.0,150.0 L175.5,150.5 L176.0,151.0 L177.0,151.0 L177.5,150.5 L178.0,150.0 L178.5,150.5 L179.0,151.0 L179.5,150.5 L180.0,150.0 L181.0,150.0 L182.0,150.0 L182.5,149.5 L183.0,149.0 L183.5,148.5 L184.0,148.0 L185.0,148.0 L186.0,148.0 L186.5,147.5 L186.5,146.5 L187.0,146.0 L187.5,145.5 L188.0,145.0 L188.5,144.5 L188.5,143.5 L189.0,143.0 L190.0,143.0 L190.5,142.5 L190.5,141.5 L190.5,140.5 L191.0,140.0 L191.5,139.5 L191.0,139.0 L190.5,138.5 L190.5,137.5 L191.0,137.0 L191.5,136.5 L191.5,135.5 L191.5,134.5 L192.0,134.0 L192.5,133.5 L192.0,133.0 L191.5,132.5 L191.5,131.5 L192.0,131.0 L192.5,130.5 L192.5,129.5 L193.0,129.0 L193.5,128.5 L193.5,127.5 L193.0,127.0 L192.5,126.5 L193.0,126.0 L193.5,125.5 L193.5,124.5 L193.5,123.5 L194.0,123.0 L194.5,122.5 L194.0,122.0 L193.5,121.5 L194.0,121.0 L194.5,120.5 L195.0,120.0 L195.5,119.5 L195.5,118.5 L196.0,118.0 L197.0,118.0 L197.5,117.5 L197.5,116.5 L198.0,116.0 L198.5,115.5 L199.0,115.0 L200.0,115.0 L200.5,114.5 L200.5,113.5 L201.0,113.0 L202.0,113.0 L202.5,112.5 L202.5,111.5 L203.0,111.0 L203.5,110.5 L204.0,110.0 L205.0,110.0 L205.5,109.5 L206.0,109.0 L206.5,109.5 L207.0,110.0 L208.0,110.0 L209.0,110.0 L209.5,110.5 L210.0,111.0 L211.0,111.0 L212.0,111.0 L212.5,111.5 L213.0,112.0 L214.0,112.0 L214.5,112.5 L215.0,113.0 L216.0,113.0 L217.0,113.0 L217.5,113.5 L218.0,114.0 L219.0,114.0 L220.0,114.0 L220.5,114.5 L221.0,115.0 L221.5,115.5 L222.0,116.0 L222.5,116.5 L223.0,117.0 L224.0,117.0 L225.0,117.0 L225.5,117.5 L226.0,118.0 L227.0,118.0 L228.0,118.0 L228.5,118.5 L229.0,119.0 L230.0,119.0 L231.0,119.0 L231.5,119.5 L232.0,120.0 L233.0,120.0 L233.5,120.5 L234.0,121.0 L235.0,121.0 L236.0,121.0 L236.5,121.5 L237.0,122.0 L238.0,122.0 L238.5,121.5 L239.0,121.0 L240.0,121.0 L241.0,121.0 L241.5,120.5 L242.0,120.0 L243.0,120.0 L244.0,120.0 L244.5,119.5 L245.0,119.0 L245.5,119.5 L246.0,120.0 L246.5,119.5 L247.0,119.0 L247.5,118.5 L248.0,118.0 L249.0,118.0 L250.0,118.0 L251.0,118.0 L252.0,118.0 L252.5,117.5 L253.0,117.0 L254.0,117.0 L255.0,117.0 L256.0,117.0 L257.0,117.0 L257.5,117.5 L257.5,118.5 L258.0,119.0 L259.0,119.0 L260.0,119.0 L260.5,119.5 L260.5,120.5 L261.0,121.0 L262.0,121.0 L262.5,121.5 L263.0,122.0 L264.0,122.0 L265.0,122.0 L266.0,122.0 L267.0,122.0 L268.0,122.0 L269.0,122.0 L269.5,121.5 L270.0,121.0 L271.0,121.0 L272.0,121.0 L273.0,121.0 L273.5,120.5 L274.0,120.0 L275.0,120.0 L276.0,120.0 L277.0,120.0 L278.0,120.0 L278.5,119.5 L279.0,119.0 L279.5,118.5 L280.0,118.0 L280.5,117.5 L280.5,116.5 L280.0,116.0 L279.5,115.5 L280.0,115.0 L280.5,114.5 L280.0,114.0 L279.5,113.5 L279.5,112.5 L280.0,112.0 L280.5,111.5 L280.0,111.0 L279.5,110.5 L279.5,109.5 L280.0,109.0 L280.5,108.5 L280.0,108.0 L279.5,107.5 L279.5,106.5 L280.0,106.0 L280.5,105.5 L280.5,104.5 L280.5,103.5 L281.0,103.0 L281.5,102.5 L281.5,101.5 L282.0,101.0 L282.5,100.5 L282.5,99.5 L282.5,98.5 L283.0,98.0 L283.5,97.5 L283.5,96.5 L283.5,95.5 L284.0,95.0 L284.5,94.5 L284.5,93.5 L284.5,92.5 L285.0,92.0 L285.5,91.5 L286.0,91.0 L286.5,90.5 L287.0,90.0 L287.5,89.5 L287.5,88.5 L287.5,87.5 L288.0,87.0 L288.5,86.5 L288.5,85.5 L288.5,84.5 L289.0,84.0 L289.5,83.5 L289.5,82.5 L290.0,82.0 L290.5,81.5 L290.5,80.5 L290.5,79.5 L291.0,79.0 L291.5,78.5 L291.5,77.5 L291.5,76.5 L292.0,76.0 L292.5,75.5 L292.5,74.5 L292.5,73.5 L293.0,73.0 L293.5,72.5 L293.5,71.5 L294.0,71.0 L294.5,70.5 L294.5,69.5 L294.5,68.5 L295.0,68.0 L295.5,67.5 L295.5,66.5 L295.5,65.5 L296.0,65.0 L296.5,64.5 L296.5,63.5 L296.5,62.5 L297.0,62.0 L297.5,61.5 L298.0,61.0 L298.5,60.5 L299.0,60.0 L299.5,59.5 L300.0,59.0 L300.5,59.5 L301.0,60.0 L301.5,59.5 L302.0,59.0 L303.0,59.0 L303.5,59.5 L304.0,60.0 L305.0,60.0 L305.5,60.5 L306.0,61.0 L307.0,61.0 L308.0,61.0 L309.0,61.0 L309.5,60.5 L310.0,60.0 L310.5,59.5 L311.0,59.0 L311.5,58.5 L311.5,57.5 L312.0,57.0 L312.5,56.5 L313.0,56.0 L313.5,55.5 L313.5,54.5 L314.0,54.0 L315.0,54.0 L315.5,53.5 L315.5,52.5 L315.5,51.5 L316.0,51.0 L317.0,51.0 L317.5,50.5 L317.5,49.5 L317.5,48.5 L318.0,48.0 L319.0,48.0 L319.5,47.5 L319.5,46.5 L320.0,46.0 L321.0,46.0 L321.5,45.5 L321.5,44.5 L321.5,43.5 L322.0,43.0 L323.0,43.0 L324.0,43.0 L324.5,42.5 L325.0,42.0 L326.0,42.0 L327.0,42.0 L327.5,41.5 L328.0,41.0 L329.0,41.0 L329.5,41.5 L330.0,42.0 L330.5,41.5 L331.0,41.0 L332.0,41.0 L333.0,41.0 L334.0,41.0 L334.5,40.5 L335.0,40.0 L336.0,40.0 L337.0,40.0 L338.0,40.0 L339.0,40.0 L340.0,40.0 L340.5,39.5 L341.0,39.0 L341.5,39.5 L342.0,40.0 L342.5,39.5 L343.0,39.0 L343.5,38.5 L344.0,38.0 L344.5,38.5 L345.0,39.0 L346.0,39.0 L346.5,38.5 L346.5,37.5 L347.0,37.0 L347.5,36.5 L348.0,36.0 L348.5,35.5 L348.5,34.5 L348.5,33.5 L349.0,33.0 L349.5,32.5 L349.5,31.5 L350.0,31.0 L351.0,31.0 L351.5,30.5 L351.5,29.5 L351.5,28.5 L352.0,28.0 L352.5,27.5 L352.5,26.5 L352.5,25.5 L353.0,25.0 L353.5,24.5 L353.5,23.5 L354.0,23.0 L354.5,22.5 L354.5,21.5 L354.5,20.5 L355.0,20.0 L355.5,19.5 L355.5,18.5 L355.5,17.5 L356.0,17.0 L356.5,16.5 L356.5,15.5 L356.5,14.5 L357.0,14.0 L357.5,13.5 L357.5,12.5 L358.0,12.0 L358.5,11.5 L358.5,10.5 L358.5,9.5 L359.0,9.0 L359.5,8.5 L360.0,8.0 L360.5,7.5 L360.5,6.5 L361.0,6.0 L361.5,5.5 L361.5,4.5 L362.0,4.0 L362.5,3.5 L363.0,3.0 L363.5,2.5 L363.5,1.5 L364.0,1.0 L365.0,1.0 L365.5,1.5 L366.0,2.0 L367.0,2.0 L367.5,1.5 L368.0,1.0 L368.5,1.5 L369.0,2.0 L369.5,1.5 L370.0,1.0 L371.0,1.0 L372.0,1.0 L373.0,1.0 L374.0,1.0 L375.0,1.0 L376.0,1.0 L377.0,1.0 L378.0,1.0 L379.0,1.0 L380.0,1.0 L381.0,1.0 L382.0,1.0 L383.0,1.0 L384.0,1.0 L385.0,1.0 L386.0,1.0 L387.0,1.0 L388.0,1.0 L388.5,0.5 L389.0,0.0 L389.5,0.5 L390.0,1.0 L390.5,0.5 L391.0,0.0 L392.0,0.0 L392.5,0.5 L393.0,1.0 L393.5,0.5 L394.0,0.0 L395.0,0.0 L395.5,0.5 L396.0,1.0 L397.0,1.0 L397.5,0.5 L398.0,0.0 L398.5,0.5 L399.0,1.0 L399.5,0.5 L400.0,0.0 L401.0,0.0 L401.5,0.5 L402.0,1.0 L402.5,0.5 L403.0,0.0 L404.0,0.0 L404.5,0.5 L405.0,1.0 L405.5,0.5 L406.0,0.0 L406.5,0.5 L407.0,1.0 L407.5,0.5 L408.0,0.0 L409.0,0.0 L410.0,0.0 L411.0,0.0 L412.0,0.0 L412.5,0.5 L413.0,1.0 L413.5,0.5 L414.0,0.0 L415.0,0.0 L415.5,0.5 L416.0,1.0 L416.5,0.5 L417.0,0.0 L418.0,0.0 L419.0,0.0 L420.0,0.0 L421.0,0.0 L422.0,0.0 L423.0,0.0 L424.0,0.0 L425.0,0.0 L426.0,0.0 L427.0,0.0 L428.0,0.0 L429.0,0.0 L430.0,0.0 L431.0,0.0 L432.0,0.0 L433.0,0.0 L434.0,0.0 L435.0,0.0 L436.0,0.0 L436.5,0.5 L437.0,1.0 L438.0,1.0 L438.5,1.5 L439.0,2.0 L440.0,2.0 L440.5,2.5 L440.5,3.5 L441.0,4.0 L441.5,4.5 L441.5,5.5 L441.0,6.0 L440.5,6.5 L440.5,7.5 L441.0,8.0 L441.5,8.5 L441.0,9.0 L440.5,9.5 L440.5,10.5 L441.0,11.0 L441.5,11.5 L441.0,12.0 L440.5,12.5 L440.5,13.5 L440.0,14.0 L439.5,14.5 L439.5,15.5 L440.0,16.0 L440.5,16.5 L440.0,17.0 L439.5,17.5 L439.5,18.5 L439.5,19.5 L439.0,20.0 L438.5,20.5 L439.0,21.0 L439.5,21.5 L439.5,22.5 L439.0,23.0 L438.5,23.5 L439.0,24.0 L439.5,24.5 L439.5,25.5 L439.0,26.0 L438.5,26.5 L438.5,27.5 L438.5,28.5 L438.5,29.5 L438.5,30.5 L438.5,31.5 L438.0,32.0 L437.5,32.5 L437.5,33.5 L437.0,34.0 L436.5,34.5 L437.0,35.0 L437.5,35.5 L437.5,36.5 L437.0,37.0 L436.5,37.5 L436.5,38.5 L437.0,39.0 L437.5,39.5 L437.0,40.0 L436.5,40.5 L436.5,41.5 L436.5,42.5 L436.5,43.5 L436.5,44.5 L436.5,45.5 L436.0,46.0 L435.5,46.5 L435.5,47.5 L435.5,48.5 L435.0,49.0 L434.5,49.5 L434.5,50.5 L434.0,51.0 L433.5,51.5 L433.5,52.5 L433.5,53.5 L433.0,54.0 L432.0,54.0 L431.5,54.5 L431.5,55.5 L431.0,56.0 L430.5,56.5 L430.0,57.0 L429.0,57.0 L428.5,57.5 L428.5,58.5 L428.0,59.0 L427.5,59.5 L427.0,60.0 L426.5,60.5 L426.0,61.0 L425.0,61.0 L424.5,61.5 L424.0,62.0 L423.5,62.5 L423.5,63.5 L423.0,64.0 L422.0,64.0 L421.5,64.5 L421.0,65.0 L420.5,65.5 L420.0,66.0 L419.5,66.5 L419.0,67.0 L418.5,67.5 L418.0,68.0 L417.5,68.5 L417.0,69.0 L416.5,69.5 L416.0,70.0 L415.5,70.5 L415.0,71.0 L414.0,71.0 L413.5,71.5 L413.5,72.5 L413.0,73.0 L412.5,73.5 L412.0,74.0 L411.0,74.0 L410.5,74.5 L410.5,75.5 L410.0,76.0 L409.0,76.0 L408.5,76.5 L408.0,77.0 L407.5,77.5 L407.0,78.0 L406.5,78.5 L406.0,79.0 L405.5,79.5 L405.5,80.5 L405.0,81.0 L404.0,81.0 L403.5,81.5 L403.0,82.0 L402.5,82.5 L402.0,83.0 L401.5,83.5 L401.0,84.0 L400.0,84.0 L399.5,84.5 L399.5,85.5 L399.0,86.0 L398.0,86.0 L397.5,86.5 L397.0,87.0 L396.5,87.5 L396.5,88.5 L396.0,89.0 L395.0,89.0 L394.5,89.5 L394.0,90.0 L393.5,90.5 L393.0,91.0 L392.5,91.5 L392.0,92.0 L391.5,92.5 L391.0,93.0 L390.0,93.0 L389.5,93.5 L389.5,94.5 L389.0,95.0 L388.5,95.5 L388.0,96.0 L387.0,96.0 L386.5,96.5 L386.5,97.5 L386.0,98.0 L385.0,98.0 L384.5,98.5 L384.0,99.0 L383.5,99.5 L383.5,100.5 L383.0,101.0 L382.0,101.0 L381.5,101.5 L381.5,102.5 L381.0,103.0 L380.0,103.0 L379.0,103.0 L378.5,103.5 L378.5,104.5 L378.0,105.0 L377.5,105.5 L377.0,106.0 L376.0,106.0 L375.5,106.5 L375.5,107.5 L375.0,108.0 L374.0,108.0 L373.5,108.5 L373.0,109.0 L372.5,109.5 L372.5,110.5 L372.0,111.0 L371.0,111.0 L370.5,111.5 L370.5,112.5 L370.0,113.0 L369.0,113.0 L368.5,113.5 L368.0,114.0 L367.5,114.5 L367.0,115.0 L366.0,115.0 L365.5,115.5 L365.5,116.5 L365.0,117.0 L364.5,117.5 L364.0,118.0 L363.5,118.5 L363.0,119.0 L362.0,119.0 L361.5,119.5 L361.0,120.0 L360.5,120.5 L360.0,121.0 L359.5,121.5 L359.0,122.0 L358.5,122.5 L358.0,123.0 L357.5,123.5 L357.0,124.0 L356.5,124.5 L356.0,125.0 L355.0,125.0 L354.5,125.5 L354.5,126.5 L354.0,127.0 L353.5,127.5 L353.0,128.0 L352.0,128.0 L351.5,128.5 L351.5,129.5 L351.0,130.0 L350.0,130.0 L349.5,130.5 L349.5,131.5 L349.0,132.0 L348.5,132.5 L348.0,133.0 L347.0,133.0 L346.5,133.5 L346.5,134.5 L346.0,135.0 L345.0,135.0 L344.0,135.0 L343.5,135.5 L343.5,136.5 L343.5,137.5 L343.0,138.0 L342.0,138.0 L341.5,138.5 L341.0,139.0 L340.5,139.5 L340.0,140.0 L339.0,140.0 L338.5,140.5 L338.0,141.0 L337.5,141.5 L337.0,142.0 L336.5,142.5 L336.0,143.0 L335.5,143.5 L335.5,144.5 L335.0,145.0 L334.0,145.0 L333.5,145.5 L333.0,146.0 L332.5,146.5 L332.0,147.0 L331.0,147.0 L330.5,147.5 L330.5,148.5 L330.0,149.0 L329.5,149.5 L329.0,150.0 L328.5,150.5 L328.0,151.0 L327.5,151.5 L327.0,152.0 L326.0,152.0 L325.5,152.5 L325.5,153.5 L325.0,154.0 L324.5,154.5 L324.0,155.0 L323.0,155.0 L322.5,155.5 L322.0,156.0 L321.5,156.5 L321.0,157.0 L320.5,157.5 L320.0,158.0 L319.5,158.5 L319.0,159.0 L318.5,159.5 L318.0,160.0 L317.0,160.0 L316.5,160.5 L316.5,161.5 L316.0,162.0 L315.0,162.0 L314.5,162.5 L314.5,163.5 L314.0,164.0 L313.5,164.5 L313.0,165.0 L312.0,165.0 L311.5,165.5 L311.5,166.5 L311.0,167.0 L310.0,167.0 L309.5,167.5 L309.0,168.0 L308.5,168.5 L308.0,169.0 L307.0,169.0 L306.5,169.5 L306.5,170.5 L306.0,171.0 L305.5,171.5 L305.0,172.0 L304.5,172.5 L304.0,173.0 L303.5,173.5 L303.0,174.0 L302.0,174.0 L301.5,174.5 L301.5,175.5 L301.0,176.0 L300.5,176.5 L300.0,177.0 L299.0,177.0 L298.5,177.5 L298.5,178.5 L298.0,179.0 L297.0,179.0 L296.0,179.0 L295.5,179.5 L295.5,180.5 L295.0,181.0 L294.5,181.5 L294.0,182.0 L293.0,182.0 L292.5,182.5 L292.5,183.5 L292.0,184.0 L291.0,184.0 L290.5,184.5 L290.5,185.5 L290.0,186.0 L289.5,186.5 L289.0,187.0 L288.0,187.0 L287.5,187.5 L287.5,188.5 L287.0,189.0 L286.0,189.0 L285.5,189.5 L285.0,190.0 L284.5,190.5 L284.5,191.5 L284.0,192.0 L283.0,192.0 L282.5,192.5 L282.0,193.0 L281.5,193.5 L281.0,194.0 L280.5,194.5 L280.0,195.0 L279.5,195.5 L279.5,196.5 L279.0,197.0 L278.5,196.5 L278.0,196.0 L277.5,196.5 L277.0,197.0 L276.5,197.5 L276.5,198.5 L276.0,199.0 L275.0,199.0 L274.5,199.5 L274.5,200.5 L274.0,201.0 L273.0,201.0 L272.0,201.0 L271.5,201.5 L271.5,202.5 L271.0,203.0 L270.5,203.5 L270.0,204.0 L269.5,204.5 L269.5,205.5 L269.0,206.0 L268.0,206.0 L267.0,206.0 L266.5,206.5 L266.5,207.5 L266.0,208.0 L265.5,208.5 L265.0,209.0 L264.5,209.5 L264.0,210.0 L263.5,210.5 L263.0,211.0 L262.5,211.5 L262.5,212.5 L262.0,213.0 L261.5,213.5 L261.0,214.0 L260.0,214.0 L259.5,214.5 L259.5,215.5 L259.0,216.0 L258.5,216.5 L258.5,217.5 L258.5,218.5 L258.0,219.0 L257.5,219.5 L257.5,220.5 L257.5,221.5 L257.0,222.0 L256.5,222.5 L256.5,223.5 L256.5,224.5 L256.0,225.0 L255.5,225.5 L255.5,226.5 L255.5,227.5 L255.5,228.5 L255.5,229.5 L255.5,230.5 L255.5,231.5 L255.5,232.5 L255.5,233.5 L255.5,234.5 L256.0,235.0 L256.5,235.5 L257.0,236.0 L257.5,236.5 L257.0,237.0 L256.5,237.5 L256.5,238.5 L256.5,239.5 L256.5,240.5 L257.0,241.0 L257.5,241.5 L258.0,242.0 L258.5,242.5 L258.0,243.0 L257.5,243.5 L258.0,244.0 L258.5,244.5 L258.0,245.0 L257.5,245.5 L258.0,246.0 L258.5,246.5 L258.5,247.5 L258.0,248.0 L257.5,248.5 L257.5,249.5 L258.0,250.0 L258.5,250.5 L258.5,251.5 L258.5,252.5 L258.5,253.5 L258.5,254.5 L258.5,255.5 L259.0,256.0 L259.5,256.5 L259.0,257.0 L258.5,257.5 L258.5,258.5 L259.0,259.0 L259.5,259.5 L259.0,260.0 L258.5,260.5 L258.5,261.5 L258.5,262.5 L258.5,263.5 L258.5,264.5 L258.5,265.5 L258.5,266.5 L258.5,267.5 L258.5,268.5 L258.0,269.0 L257.5,269.5 L258.0,270.0 L258.5,270.5 L258.5,271.5 L258.0,272.0 L257.5,272.5 L257.5,273.5 L258.0,274.0 L258.5,274.5 L258.0,275.0 L257.5,275.5 L257.5,276.5 L257.0,277.0 L256.5,277.5 L256.5,278.5 L257.0,279.0 L257.5,279.5 L257.0,280.0 L256.5,280.5 L256.5,281.5 L256.5,282.5 L256.0,283.0 L255.5,283.5 L255.5,284.5 L255.5,285.5 L255.0,286.0 L254.5,286.5 L255.0,287.0 L255.5,287.5 L255.5,288.5 L255.0,289.0 L254.5,289.5 L254.5,290.5 L254.5,291.5 L254.0,292.0 L253.5,292.5 L253.5,293.5 L253.0,294.0 L252.5,294.5 L252.5,295.5 L252.5,296.5 L252.0,297.0 L251.5,297.5 L251.5,298.5 L251.5,299.5 L251.0,300.0 L250.5,300.5 L250.5,301.5 L250.5,302.5 L250.0,303.0 L249.5,303.5 L249.5,304.5 L249.0,305.0 L248.5,305.5 L248.0,306.0 L247.5,306.5 L247.5,307.5 L247.0,308.0 L246.5,308.5 L246.5,309.5 L246.5,310.5 L246.0,311.0 L245.5,311.5 L245.5,312.5 L245.0,313.0 L244.5,313.5 L244.0,314.0 L243.5,314.5 L243.5,315.5 L243.0,316.0 L242.5,316.5 L242.0,317.0 L241.5,317.5 L241.0,318.0 L240.5,318.5 L240.5,319.5 L240.5,320.5 L240.0,321.0 L239.0,321.0 L238.5,321.5 L238.5,322.5 L238.5,323.5 L238.0,324.0 L237.5,324.5 L237.0,325.0 L236.5,325.5 L236.0,326.0 L235.5,326.5 L235.0,327.0 L234.5,327.5 L234.5,328.5 L234.0,329.0 L233.5,329.5 L233.0,330.0 L232.5,330.5 L232.5,331.5 L232.0,332.0 L231.0,332.0 L230.5,332.5 L230.5,333.5 L230.0,334.0 L229.0,334.0 L228.5,334.5 L228.0,335.0 L227.5,335.5 L227.0,336.0 L226.5,336.5 L226.0,337.0 L225.5,337.5 L225.5,338.5 L225.0,339.0 L224.0,339.0 L223.5,339.5 L223.5,340.5 L223.0,341.0 L222.0,341.0 L221.0,341.0 L220.5,341.5 L220.5,342.5 L220.0,343.0 L219.5,343.5 L219.0,344.0 L218.5,344.5 L218.0,345.0 L217.5,345.5 L217.0,346.0 L216.0,346.0 L215.5,346.5 L215.0,347.0 L214.5,347.5 L214.0,348.0 L213.5,348.5 L213.0,349.0 L212.5,349.5 L212.0,350.0 L211.5,350.5 L211.0,351.0 L210.0,351.0 L209.0,351.0 L208.5,351.5 L208.5,352.5 L208.0,353.0 L207.0,353.0 L206.0,353.0 L205.5,353.5 L205.0,354.0 L204.5,354.5 L204.0,355.0 L203.5,355.5 L203.0,356.0 L202.0,356.0 L201.5,356.5 L201.0,357.0 L200.0,357.0 L199.5,357.5 L199.0,358.0 L198.0,358.0 L197.0,358.0 L196.5,358.5 L196.0,359.0 L195.5,359.5 L195.0,360.0 L194.0,360.0 L193.0,360.0 L192.5,360.5 L192.0,361.0 L191.0,361.0 L190.5,361.5 L190.0,362.0 L189.0,362.0 L188.0,362.0 L187.5,362.5 L187.0,363.0 L186.5,363.5 L186.0,364.0 L185.0,364.0 L184.0,364.0 L183.0,364.0 L182.0,364.0 L181.5,364.5 L181.0,365.0 L180.5,365.5 L180.0,366.0 L179.0,366.0 L178.0,366.0 L177.0,366.0 L176.5,366.5 L176.0,367.0 L175.0,367.0 L174.0,367.0 L173.5,367.5 L173.0,368.0 L172.5,367.5 L172.0,367.0 L171.5,367.5 L171.0,368.0 L170.0,368.0 L169.0,368.0 L168.5,368.5 L168.0,369.0 L167.0,369.0 L166.0,369.0 L165.0,369.0 L164.0,369.0 L163.0,369.0 L162.0,369.0 L161.5,369.5 L161.0,370.0 L160.5,369.5 L160.0,369.0 L159.5,369.5 L159.0,370.0 L158.0,370.0 L157.0,370.0 L156.0,370.0 L155.5,370.5 L155.0,371.0 L154.5,370.5 L154.0,370.0 L153.0,370.0 L152.5,370.5 L152.0,371.0 L151.5,370.5 L151.0,370.0 L150.0,370.0 L149.5,370.5 L149.0,371.0 L148.5,370.5 L148.0,370.0 L147.0,370.0 L146.5,370.5 L146.0,371.0 L145.5,370.5 L145.0,370.0 L144.5,370.5 L144.0,371.0 L143.0,371.0 L142.5,370.5 L142.0,370.0 L141.5,370.5 L141.0,371.0 L140.5,370.5 L140.0,370.0 L139.0,370.0 L138.0,370.0 L137.5,369.5 L137.0,369.0 L136.5,369.5 L136.0,370.0 L135.0,370.0 L134.5,369.5 L134.0,369.0 L133.5,369.5 L133.0,370.0 L132.0,370.0 L131.5,369.5 L131.0,369.0 L130.0,369.0 L129.0,369.0 L128.0,369.0 L127.0,369.0 L126.0,369.0 L125.5,368.5 L125.0,368.0 L124.0,368.0 L123.5,367.5 L123.0,367.0 L122.0,367.0 L121.0,367.0 L120.5,367.5 L121.0,368.0 L122.0,368.0 L122.5,368.5 L123.0,369.0 L124.0,369.0 L125.0,369.0 L125.5,369.5 L126.0,370.0 L127.0,370.0 L128.0,370.0 L128.5,370.5 L129.0,371.0 L130.0,371.0 L131.0,371.0 L131.5,371.5 L132.0,372.0 L133.0,372.0 L133.5,372.5 L134.0,373.0 L135.0,373.0 L136.0,373.0 L136.5,373.5 L137.0,374.0 L138.0,374.0 L139.0,374.0 L139.5,374.5 L140.0,375.0 L141.0,375.0 L142.0,375.0 L142.5,375.5 L143.0,376.0 L144.0,376.0 L144.5,376.5 L145.0,377.0 L146.0,377.0 L147.0,377.0 L147.5,377.5 L148.0,378.0 L149.0,378.0 L150.0,378.0 L150.5,378.5 L151.0,379.0 L152.0,379.0 L153.0,379.0 L153.5,379.5 L154.0,380.0 L155.0,380.0 L155.5,380.5 L156.0,381.0 L157.0,381.0 L158.0,381.0 L158.5,381.5 L159.0,382.0 L160.0,382.0 L161.0,382.0 L161.5,382.5 L162.0,383.0 L163.0,383.0 L164.0,383.0 L164.5,383.5 L165.0,384.0 L166.0,384.0 L166.5,384.5 L167.0,385.0 L168.0,385.0 L169.0,385.0 L169.5,385.5 L170.0,386.0 L171.0,386.0 L172.0,386.0 L172.5,386.5 L173.0,387.0 L174.0,387.0 L175.0,387.0 L175.5,387.5 L176.0,388.0 L177.0,388.0 L177.5,388.5 L178.0,389.0 L179.0,389.0 L180.0,389.0 L180.5,389.5 L181.0,390.0 L182.0,390.0 L183.0,390.0 L183.5,390.5 L184.0,391.0 L185.0,391.0 L186.0,391.0 L186.5,391.5 L187.0,392.0 L188.0,392.0 L188.5,392.5 L189.0,393.0 L190.0,393.0 L191.0,393.0 L191.5,393.5 L192.0,394.0 L193.0,394.0 L194.0,394.0 L194.5,394.5 L195.0,395.0 L196.0,395.0 L197.0,395.0 L197.5,395.5 L198.0,396.0 L199.0,396.0 L199.5,396.5 L200.0,397.0 L201.0,397.0 L202.0,397.0 L202.5,397.5 L203.0,398.0 L204.0,398.0 L205.0,398.0 L205.5,398.5 L206.0,399.0 L207.0,399.0 L208.0,399.0 L208.5,399.5 L209.0,400.0 L210.0,400.0 L210.5,400.5 L211.0,401.0 L212.0,401.0 L213.0,401.0 L213.5,401.5 L214.0,402.0 L215.0,402.0 L216.0,402.0 L216.5,402.5 L217.0,403.0 L218.0,403.0 L218.5,403.5 L219.0,404.0 L220.0,404.0 L221.0,404.0 L221.5,404.5 L222.0,405.0 L223.0,405.0 L224.0,405.0 L224.5,405.5 L225.0,406.0 L226.0,406.0 L227.0,406.0 L227.5,406.5 L228.0,407.0 L229.0,407.0 L229.5,407.5 L230.0,408.0 L231.0,408.0 L232.0,408.0 L232.5,408.5 L233.0,409.0 L234.0,409.0 L235.0,409.0 L235.5,409.5 L236.0,410.0 L237.0,410.0 L238.0,410.0 L238.5,410.5 L239.0,411.0 L240.0,411.0 L240.5,411.5 L241.0,412.0 L242.0,412.0 L243.0,412.0 L243.5,412.5 L244.0,413.0 L245.0,413.0 L246.0,413.0 L246.5,413.5 L247.0,414.0 L248.0,414.0 L249.0,414.0 L249.5,414.5 L250.0,415.0 L251.0,415.0 L251.5,415.5 L252.0,416.0 L253.0,416.0 L254.0,416.0 L254.5,416.5 L255.0,417.0 L256.0,417.0 L257.0,417.0 L257.5,417.5 L258.0,418.0 L259.0,418.0 L260.0,418.0 L260.5,418.5 L261.0,419.0 L262.0,419.0 L262.5,419.5 L263.0,420.0 L264.0,420.0 L265.0,420.0 L265.5,420.5 L266.0,421.0 L267.0,421.0 L268.0,421.0 L268.5,421.5 L269.0,422.0 L270.0,422.0 L271.0,422.0 L271.5,422.5 L272.0,423.0 L273.0,423.0 L273.5,423.5 L274.0,424.0 L275.0,424.0 L276.0,424.0 L276.5,424.5 L277.0,425.0 L278.0,425.0 L279.0,425.0 L279.5,425.5 L280.0,426.0 L281.0,426.0 L282.0,426.0 L282.5,426.5 L283.0,427.0 L284.0,427.0 L284.5,427.5 L285.0,428.0 L286.0,428.0 L287.0,428.0 L287.5,428.5 L288.0,429.0 L289.0,429.0 L290.0,429.0 L290.5,429.5 L291.0,430.0 L292.0,430.0 L293.0,430.0 L293.5,430.5 L294.0,431.0 L295.0,431.0 L295.5,431.5 L296.0,432.0 L297.0,432.0 L298.0,432.0 L298.5,432.5 L299.0,433.0 L300.0,433.0 L301.0,433.0 L301.5,432.5 L302.0,432.0 L302.5,431.5 L302.5,430.5 L302.5,429.5 L303.0,429.0 L303.5,428.5 L303.5,427.5 L303.5,426.5 L304.0,426.0 L304.5,425.5 L304.5,424.5 L304.5,423.5 L305.0,423.0 L305.5,422.5 L305.5,421.5 L306.0,421.0 L306.5,420.5 L306.5,419.5 L306.5,418.5 L307.0,418.0 L307.5,417.5 L307.5,416.5 L307.5,415.5 L308.0,415.0 L308.5,414.5 L308.5,413.5 L308.5,412.5 L309.0,412.0 L309.5,411.5 L309.5,410.5 L310.0,410.0 L310.5,409.5 L310.5,408.5 L310.5,407.5 L311.0,407.0 L311.5,406.5 L311.5,405.5 L311.5,404.5 L312.0,404.0 L312.5,403.5 L312.5,402.5 L312.5,401.5 L313.0,401.0 L313.5,400.5 L313.5,399.5 L314.0,399.0 L314.5,398.5 L314.5,397.5 L314.5,396.5 L315.0,396.0 L315.5,395.5 L315.5,394.5 L315.5,393.5 L316.0,393.0 L316.5,392.5 L316.5,391.5 L316.5,390.5 L317.0,390.0 L317.5,389.5 L317.5,388.5 L318.0,388.0 L318.5,387.5 L318.5,386.5 L318.5,385.5 L319.0,385.0 L319.5,384.5 L319.5,383.5 L319.5,382.5 L320.0,382.0 L320.5,381.5 L320.5,380.5 L320.5,379.5 L321.0,379.0 L321.5,378.5 L321.5,377.5 L322.0,377.0 L322.5,376.5 L322.5,375.5 L322.5,374.5 L323.0,374.0 L323.5,373.5 L323.5,372.5 L323.5,371.5 L324.0,371.0 L324.5,370.5 L324.5,369.5 L324.5,368.5 L325.0,368.0 L325.5,367.5 L325.5,366.5 L326.0,366.0 L326.5,365.5 L326.5,364.5 L326.5,363.5 L327.0,363.0 L327.5,362.5 L327.5,361.5 L327.5,360.5 L328.0,360.0 L328.5,359.5 L328.5,358.5 L328.5,357.5 L329.0,357.0 L329.5,356.5 L329.5,355.5 L330.0,355.0 L330.5,354.5 L330.5,353.5 L330.5,352.5 L331.0,352.0 L331.5,351.5 L331.5,350.5 L331.5,349.5 L332.0,349.0 L332.5,348.5 L332.5,347.5 L332.5,346.5 L333.0,346.0 L333.5,345.5 L333.5,344.5 L334.0,344.0 L334.5,343.5 L334.5,342.5 L334.5,341.5 L335.0,341.0 L335.5,340.5 L335.5,339.5 L335.5,338.5 L336.0,338.0 L336.5,337.5 L336.5,336.5 L336.5,335.5 L337.0,335.0 L337.5,334.5 L337.5,333.5 L338.0,333.0 L338.5,332.5 L338.5,331.5 L338.5,330.5 L339.0,330.0 L339.5,329.5 L339.5,328.5 L339.5,327.5 L340.0,327.0 L340.5,326.5 L340.5,325.5 L340.5,324.5 L341.0,324.0 L341.5,323.5 L341.5,322.5 L342.0,322.0 L342.5,321.5 L342.5,320.5 L342.5,319.5 L343.0,319.0 L343.5,318.5 L343.5,317.5 L343.5,316.5 L344.0,316.0 L344.5,315.5 L344.5,314.5 L344.5,313.5 L345.0,313.0 L345.5,312.5 L345.5,311.5 L346.0,311.0 L346.5,310.5 L346.5,309.5 L346.5,308.5 L347.0,308.0 L347.5,307.5 L347.5,306.5 L347.5,305.5 L348.0,305.0 L348.5,304.5 L348.5,303.5 L348.5,302.5 L349.0,302.0 L349.5,301.5 L349.5,300.5 L350.0,300.0 L350.5,299.5 L350.5,298.5 L350.5,297.5 L351.0,297.0 L351.5,296.5 L351.5,295.5 L351.5,294.5 L352.0,294.0 L352.5,293.5 L352.5,292.5 L352.5,291.5 L353.0,291.0 L353.5,290.5 L353.5,289.5 L354.0,289.0 L354.5,288.5 L354.5,287.5 L354.5,286.5 L355.0,286.0 L355.5,285.5 L355.5,284.5 L355.5,283.5 L356.0,283.0 L356.5,282.5 L356.5,281.5 L356.5,280.5 L357.0,280.0 L357.5,279.5 L357.5,278.5 L358.0,278.0 L358.5,277.5 L358.5,276.5 L358.5,275.5 L359.0,275.0 L359.5,274.5 L359.5,273.5 L359.5,272.5 L360.0,272.0 L360.5,271.5 L360.5,270.5 L360.5,269.5 L361.0,269.0 L361.5,268.5 L361.5,267.5 L362.0,267.0 L362.5,266.5 L362.5,265.5 L362.5,264.5 L363.0,264.0 L363.5,263.5 L363.5,262.5 L363.5,261.5 L364.0,261.0 L364.5,260.5 L364.5,259.5 L364.5,258.5 L365.0,258.0 L365.5,257.5 L365.5,256.5 L366.0,256.0 L366.5,255.5 L366.5,254.5 L366.5,253.5 L367.0,253.0 L367.5,252.5 L367.5,251.5 L367.5,250.5 L368.0,250.0 L368.5,249.5 L368.5,248.5 L368.5,247.5 L369.0,247.0 L369.5,246.5 L369.5,245.5 L370.0,245.0 L370.5,244.5 L370.5,243.5 L370.5,242.5 L371.0,242.0 L371.5,241.5 L371.5,240.5 L371.5,239.5 L372.0,239.0 L372.5,238.5 L372.5,237.5 L372.5,236.5 L373.0,236.0 L373.5,235.5 L373.5,234.5 L374.0,234.0 L374.5,233.5 L374.5,232.5 L374.5,231.5 L375.0,231.0 L375.5,230.5 L375.5,229.5 L375.5,228.5 L376.0,228.0 L376.5,227.5 L376.5,226.5 L377.0,226.0 L377.5,225.5 L377.5,224.5 L377.5,223.5 L378.0,223.0 L378.5,222.5 L378.5,221.5 L378.5,220.5 L379.0,220.0 L379.5,219.5 L379.5,218.5 L379.5,217.5 L380.0,217.0 L380.5,216.5 L380.5,215.5 L381.0,215.0 L381.5,214.5 L381.5,213.5 L381.5,212.5 L382.0,212.0 L382.5,211.5 L382.5,210.5 L382.5,209.5 L383.0,209.0 L383.5,208.5 L383.5,207.5 L383.5,206.5 L384.0,206.0 L384.5,205.5 L384.5,204.5 L385.0,204.0 L385.5,203.5 L385.5,202.5 L385.5,201.5 L386.0,201.0 L386.5,200.5 L386.5,199.5 L386.5,198.5 L387.0,198.0 L387.5,197.5 L387.5,196.5 L387.5,195.5 L388.0,195.0 L388.5,194.5 L388.5,193.5 L389.0,193.0 L389.5,192.5 L389.5,191.5 L389.5,190.5 L390.0,190.0 L390.5,189.5 L390.5,188.5 L390.5,187.5 L391.0,187.0 L391.5,186.5 L391.5,185.5 L391.5,184.5 L392.0,184.0 L392.5,183.5 L392.5,182.5 L393.0,182.0 L393.5,181.5 L393.5,180.5 L393.5,179.5 L394.0,179.0 L394.5,178.5 L394.5,177.5 L394.5,176.5 L395.0,176.0 L395.5,175.5 L395.5,174.5 L395.5,173.5 L396.0,173.0 L396.5,172.5 L396.5,171.5 L397.0,171.0 L397.5,170.5 L397.5,169.5 L397.5,168.5 L398.0,168.0 L398.5,167.5 L398.5,166.5 L398.5,165.5 L399.0,165.0 L399.5,164.5 L399.5,163.5 L399.5,162.5 L400.0,162.0 L400.5,161.5 L400.5,160.5 L401.0,160.0 L401.5,159.5 L401.5,158.5 L401.5,157.5 L402.0,157.0 L402.5,156.5 L402.5,155.5 L402.5,154.5 L403.0,154.0 L403.5,153.5 L403.5,152.5 L403.5,151.5 L404.0,151.0 L404.5,150.5 L404.5,149.5 L405.0,149.0 L405.5,148.5 L405.5,147.5 L405.5,146.5 L406.0,146.0 L406.5,145.5 L406.5,144.5 L406.5,143.5 L407.0,143.0 L407.5,142.5 L407.5,141.5 L407.5,140.5 L408.0,140.0 L408.5,139.5 L408.5,138.5 L409.0,138.0 L409.5,137.5 L409.5,136.5 L409.5,135.5 L410.0,135.0 L410.5,134.5 L410.5,133.5 L410.5,132.5 L411.0,132.0 L411.5,131.5 L411.5,130.5 L411.5,129.5 L412.0,129.0 L412.5,128.5 L412.5,127.5 L413.0,127.0 L413.5,126.5 L413.5,125.5 L413.5,124.5 L414.0,124.0 L414.5,123.5 L414.5,122.5 L414.5,121.5 L415.0,121.0 L415.5,120.5 L415.5,119.5 L415.5,118.5 L416.0,118.0 L416.5,117.5 L416.5,116.5 L417.0,116.0 L417.5,115.5 L417.5,114.5 L417.5,113.5 L418.0,113.0 L418.5,112.5 L418.5,111.5 L418.5,110.5 L419.0,110.0 L419.5,109.5 L419.5,108.5 L419.5,107.5 L420.0,107.0 L420.5,106.5 L420.5,105.5 L421.0,105.0 L421.5,104.5 L421.5,103.5 L421.5,102.5 L422.0,102.0 L422.5,101.5 L422.5,100.5 L422.5,99.5 L423.0,99.0 L423.5,98.5 L423.5,97.5 L423.5,96.5 L424.0,96.0 L424.5,95.5 L424.5,94.5 L425.0,94.0 L425.5,93.5 L425.5,92.5 L425.5,91.5 L426.0,91.0 L426.5,90.5 L426.5,89.5 L426.5,88.5 L427.0,88.0 L427.5,87.5 L427.5,86.5 L427.5,85.5 L428.0,85.0 L428.5,84.5 L428.5,83.5 L429.0,83.0 L429.5,82.5 L429.5,81.5 L429.5,80.5 L430.0,80.0 L430.5,79.5 L430.5,78.5 L430.5,77.5 L431.0,77.0 L431.5,76.5 L431.5,75.5 L431.5,74.5 L432.0,74.0 L432.5,73.5 L432.5,72.5 L433.0,72.0 L433.5,71.5 L433.5,70.5 L433.5,69.5 L434.0,69.0 L434.5,68.5 L434.5,67.5 L434.5,66.5 L435.0,66.0 L435.5,65.5 L435.5,64.5 L435.5,63.5 L436.0,63.0 L436.5,62.5 L436.5,61.5 L437.0,61.0 L437.5,60.5 L437.5,59.5 L437.5,58.5 L438.0,58.0 L438.5,57.5 L438.5,56.5 L438.5,55.5 L439.0,55.0 L439.5,54.5 L439.5,53.5 L439.5,52.5 L440.0,52.0 L440.5,51.5 L440.5,50.5 L441.0,50.0 L441.5,49.5 L441.5,48.5 L441.5,47.5 L442.0,47.0 L442.5,46.5 L442.5,45.5 L442.5,44.5 L443.0,44.0 L443.5,43.5 L443.5,42.5 L443.5,41.5 L444.0,41.0 L444.5,40.5 L444.5,39.5 L445.0,39.0 L445.5,38.5 L445.5,37.5 L445.5,36.5 L446.0,36.0 L446.5,35.5 L446.5,34.5 L446.5,33.5 L447.0,33.0 L447.5,32.5 L447.5,31.5 L447.5,30.5 L448.0,30.0 L448.5,29.5 L448.5,28.5 L449.0,28.0 L449.5,27.5 L449.5,26.5 L449.5,25.5 L450.0,25.0 L450.5,24.5 L450.5,23.5 L450.5,22.5 L451.0,22.0 L451.5,21.5 L451.5,20.5 L451.5,19.5 L452.0,19.0 L452.5,18.5 L452.5,17.5 L453.0,17.0 L453.5,16.5 L453.5,15.5 L453.5,14.5 L454.0,14.0 L454.5,13.5 L454.5,12.5 L454.5,11.5 L455.0,11.0 L455.5,10.5 L455.5,9.5 L455.5,8.5 L456.0,8.0 L456.5,7.5 L456.5,6.5 L457.0,6.0 L457.5,5.5 L457.5,4.5 L457.5,3.5 L458.0,3.0 L458.5,2.5 L458.5,1.5 L458.0,1.0 L457.0,1.0 L456.5,0.5 L457.0,0.0 L458.0,0.0 L459.0,0.0 Z" fill="#7B7FFF" />
</svg>
