<!-- Created with Inkscape (http://www.inkscape.org/) -->

<svg viewBox="0 0 864.71875 864.71881"
   version="1.0"
   xmlns="http://www.w3.org/2000/svg">
  <title>Aa1</title>
  <g
     style="display:inline"
     transform="translate(-1.34375,-940)">
    <path
       style="color:#000000;display:inline;overflow:visible;visibility:visible;fill:currentColor;fill-opacity:1;fill-rule:nonzero;stroke:none;stroke-width:60;stroke-linecap:butt;stroke-linejoin:round;stroke-miterlimit:4;stroke-dasharray:none;stroke-dashoffset:0;stroke-opacity:1;marker:none"
       d="M 433.6875,940 C 195.35122,940 1.3437495,1134.0394 1.34375,1372.375 c 0,238.3355 194.00749,432.3437 432.34375,432.3438 238.34317,0 432.37502,-194.0082 432.375,-432.3438 C 866.0625,1134.0393 672.03068,940 433.6875,940 Z m 0,60 c 117.57553,0 222.3207,54.291 290.53125,139.2188 H 143.1875 C 211.3907,1054.291 316.11653,1000 433.6875,1000 Z M 103.875,1199.2188 h 659.65625 c 22.42172,42.6813 36.81822,90.2665 41.15625,140.75 H 62.71875 c 4.33744,-50.4835 18.737185,-98.0687 41.15625,-140.75 z m -41.53125,200.75 H 805.0625 c -3.67758,50.3759 -17.33851,97.953 -39.03125,140.75 H 101.375 c -21.690154,-42.797 -35.354172,-90.3741 -39.03125,-140.75 z m 77.09375,200.75 h 588.53125 c -68.08698,87.6527 -174.51712,144 -294.28125,144 -119.75631,-1e-4 -226.17019,-56.3513 -294.25,-144 z" />
  </g>
</svg>