<svg viewBox="0 0 12.843834 13.44"
   xmlns="http://www.w3.org/2000/svg">
  <path
     style="fill:currentColor; stroke:none"
     d=" M 6.40935 11.806243  Q 8.897687 11.730838 10.606846 11.454355  Q 10.606846 8.614136 10.833058 5.773913  Q 10.20469 3.763137 10.305229 2.657209  Q 10.330364 1.928303 10.405768 1.32507  Q 10.732518 0.922915 10.983868 1.350205  Q 10.833058 2.17965 10.833058 2.757748  Q 10.833058 4.391505 11.461425 4.341235  Q 11.813313 4.341235 11.926417 3.800839  Q 12.039527 3.260443 12.089795 2.405863  Q 12.140062 1.878034 11.938985 1.274801  Q 11.788177 0.797242 11.612235 0.294547  Q 11.737907 -0.208147 12.140062 0.143739  Q 12.79357 1.023454 12.843834 2.657209  Q 12.642761 3.939081 11.938985 6.276608  Q 12.190334 8.161711 12.316008 11.454355  Q 12.416549 12.560285 11.687639 12.887038  Q 9.626592 13.44 6.40935 13.44  L 6.40935 13.44  Q 3.217243 13.44 1.131062 12.887038  Q 0.42729 12.560285 0.527829 11.454355  Q 0.653502 8.161711 0.904849 6.276608  Q 0.201078 3.939081 0 2.657209  Q 0.050269 1.023454 0.703772 0.143739  Q 1.105927 -0.208147 1.231601 0.294547  Q 1.055658 0.797242 0.904849 1.274801  Q 0.703772 1.878034 0.754041 2.405863  Q 0.804311 3.260443 0.917417 3.800839  Q 1.030523 4.341235 1.382409 4.341235  Q 2.010776 4.391505 2.010776 2.757748  Q 2.010776 2.17965 1.859968 1.350205  Q 2.111315 0.922915 2.438066 1.32507  Q 2.51347 1.928303 2.538605 2.657209  Q 2.639144 3.763137 2.010776 5.773913  Q 2.236989 8.614136 2.236989 11.454355  Q 3.946149 11.730838 6.40935 11.806243  L 6.40935 11.806243  Z " />
  
  
</svg>