<!-- Created with Inkscape (http://www.inkscape.org/) -->
<svg viewBox="-1 -0.8 11 19.9"
   xmlns="http://www.w3.org/2000/svg">
  <g>
    <path
       d="M 8.8444464,-0.062500000 C 8.3272363,-0.045493957 7.5566175,-0.053369062 7.0411061,-0.020779770 C 6.7655024,0.058982683 6.8135185,0.36765437 6.8175818,0.58906467 C 6.8888046,4.9031264 6.9600273,9.2171882 7.0312500,13.531250 C 5.8875622,14.405745 4.7538848,15.293815 3.6036636,16.159451 C 2.9600522,16.578567 2.2155575,16.839330 1.4642736,16.977146 C 1.0206022,16.972713 0.57072200,16.670882 0.13405625,16.864965 C -0.12399600,17.063126 -0.21293890,17.605432 0.13237838,17.771555 C 0.98013033,18.226234 1.9850898,18.221877 2.9080104,18.046126 C 3.7380202,17.905154 4.5763960,17.822401 5.4098936,17.704619 C 5.9804105,17.655033 6.5967335,17.548847 7.1239216,17.836408 C 7.5631469,18.031179 8.0635465,18.357641 8.5505374,18.117497 C 8.9346069,17.877880 9.1564197,17.431765 9.2500000,17.000000 C 9.3275138,16.436709 8.9469015,15.938171 8.9536601,15.378403 C 8.9099797,14.766450 8.8403929,14.155487 8.8130754,13.542907 C 8.8441336,9.1119379 9.0151962,-0.074524794 8.8444464,-0.062500000 z M 8.3125000,0.53125000 C 8.2823989,4.9130472 8.2475069,9.2950200 8.2203998,13.676707 C 8.2841789,14.386386 8.3212734,15.099194 8.4038132,15.806678 C 8.4520881,16.185179 8.6988165,16.537658 8.6449625,16.924832 C 8.5468214,17.244254 8.3118248,17.786160 7.8915653,17.529919 C 7.3957259,17.339050 6.9242377,17.016701 6.3692281,17.053005 C 5.3581581,17.041150 4.3655492,17.267733 3.3631505,17.365491 C 2.8067578,17.444699 2.2525904,17.573510 1.6875000,17.562500 C 2.6645768,17.341456 3.6297430,16.968204 4.3995019,16.311309 C 5.4474183,15.496744 6.4986929,14.686357 7.5445090,13.869179 C 7.6863813,13.694618 7.4768811,4.7902773 7.4062500,0.56250000 C 7.7083333,0.55208333 8.0104167,0.54166667 8.3125000,0.53125000 z "
       style="opacity:0.99415207;fill:currentColor;fill-opacity:1.0000000;fill-rule:nonzero;stroke:none;stroke-width:0.60000002;stroke-linecap:butt;stroke-linejoin:round;stroke-miterlimit:4.0000000;stroke-opacity:1.0000000;display:inline" />
    
  </g>
</svg>