<!-- Created with Inkscape (http://www.inkscape.org/) -->
<svg viewBox="-109.2 -84.7 926.4 1952.3"
   xmlns="http://www.w3.org/2000/svg">
  <g />
  <g>
    <path
       d="M 607.97296,1795.2193 L 472.47989,1795.2193 L 487.10062,583.80650 C 487.59911,542.50406 446.17696,500.46788 411.02334,485.99288 C 353.79741,462.42924 276.97790,468.24444 209.96200,469.69059 C 87.747329,472.26927 -36.878142,381.03717 8.9006126,376.92162 C 79.186336,370.60287 204.97051,376.67181 296.90743,360.61933 C 319.08640,356.74682 330.18363,323.91742 351.24834,317.14661 C 380.90179,307.61515 404.76501,328.89281 430.04265,314.42956 C 474.96463,288.72628 489.24139,156.34219 508.69089,93.030510 C 528.14035,29.718842 526.53402,-10.212994 544.15857,1.9693450 C 595.55274,37.493691 582.35946,200.19208 549.59266,311.71252 C 546.62038,321.82858 579.44491,323.32278 590.34834,311.71252 C 643.28209,255.34722 676.42135,-12.435247 693.59606,1.9693450 C 732.57363,34.660210 744.92596,278.22728 720.76652,333.44887 C 706.88734,365.17273 600.89554,390.09032 601.08069,426.84639 L 607.97296,1795.2193 z "
       style="color:#000000;fill:currentColor;fill-opacity:1.0000000;fill-rule:evenodd;stroke:none;stroke-width:10.700000;stroke-linecap:round;stroke-linejoin:miter;stroke-miterlimit:4.0000000;stroke-dashoffset:0.0000000;stroke-opacity:1.0000000;marker:none;marker-start:none;marker-mid:none;marker-end:none;visibility:visible;display:inline;overflow:visible" />
  </g></svg>