<svg viewBox="0 0 21.254332 16.799999"
   xmlns="http://www.w3.org/2000/svg">
  <path
     style="fill:currentColor; stroke:none"
     d=" M 11.713255 15.947625  Q 11.740749 14.930275 13.404252 14.29787  Q 15.067756 13.665463 16.277575 12.249425  Q 17.487394 10.833385 17.803596 8.674959  Q 18.119801 6.516529 18.669716 3.794434  Q 17.762352 6.763992 17.473646 8.4  Q 17.184938 10.036005 16.208834 11.328311  Q 15.232731 12.620619 13.596724 13.184285  Q 11.960717 13.747952 10.640913 15.012763  Q 9.293614 13.747952 7.657609 13.184285  Q 6.021603 12.620619 5.045498 11.328311  Q 4.069394 10.036005 3.780687 8.4  Q 3.49198 6.763992 2.584615 3.794434  Q 3.134533 6.516529 3.450736 8.674959  Q 3.766939 10.833385 4.976758 12.249425  Q 6.186578 13.665463 7.850079 14.29787  Q 9.513581 14.930275 9.541078 15.947625  L 11.713255 15.947625  Z  M 8.936169 16.799999  Q 8.798688 15.425201 7.492634 14.999015  Q 6.186578 14.572829 4.839279 13.308017  Q 3.49198 12.043205 3.093289 10.379703  Q 2.694598 8.716202 2.502127 5.911619  Q 2.309656 3.107037 0 0  L 0.164975 0  Q 1.53977 1.53977 2.515875 2.667103  Q 3.49198 3.794434 4.193125 7.355154  Q 4.89427 10.915873 7.107691 11.974465  Q 9.321111 13.033058 10.640913 13.747952  Q 11.933222 13.033058 14.146643 11.974465  Q 16.360062 10.915873 17.061209 7.355154  Q 17.762352 3.794434 18.738459 2.667103  Q 19.714561 1.53977 21.089357 0  L 21.254332 0  Q 18.944674 3.107037 18.752207 5.911619  Q 18.559732 8.716202 18.161043 10.379703  Q 17.762352 12.043205 16.415058 13.308017  Q 15.067756 14.572829 13.7617 14.999015  Q 12.455644 15.425201 12.318164 16.799999  L 8.936169 16.799999  Z " />
</svg>