<!-- Created with Inkscape (http://www.inkscape.org/) -->
<svg viewBox="-92.7 32.4 1997.3 1844.3"
   xmlns="http://www.w3.org/2000/svg"
   version="1.0">
  <g>
    <path
       style="fill:currentColor;fill-opacity:1;fill-rule:evenodd;stroke:none;stroke-width:1px;stroke-linecap:butt;stroke-linejoin:miter;stroke-opacity:1"
       d="M 199.05129,106.39623 C 139.99673,106.39623 -18.70744,331.59469 5.1800791,372.9691 C 44.279015,440.69048 605.82109,312.38436 901.83436,312.38436 C 1586.8769,312.38436 1616.7344,549.48097 1616.7344,784.9454 C 1616.7344,921.81079 1563.8569,1023.3428 1563.8569,1166.081 C 1563.8569,1373.262 1766.3608,1802.7694 1798.4887,1802.7694 C 1830.6164,1802.7694 1667.405,1376.95 1667.405,1181.5033 C 1667.405,988.59541 1739.0063,838.01692 1739.0063,651.65896 C 1739.0063,518.07816 1677.3191,457.78775 1640.9682,360.85217 C 1697.5141,356.81318 1792.9824,364.64046 1792.9824,347.63378 C 1792.9824,330.40926 1624.9231,295.09731 1535.2211,279.33886 C 1326.0383,242.59055 1148.7158,208.83811 940.38616,208.83811 C 718.82757,208.83811 225.49002,266.11949 225.49002,266.11949 C 229.16025,211.40981 230.40306,106.39623 199.05129,106.39623 z " />
    
  </g>
</svg>