<!-- Created with Inkscape (http://www.inkscape.org/) -->
<svg viewBox="-82.4 -100 2225 1981.5"
   xmlns="http://www.w3.org/2000/svg"
   version="1.0">
  <g
     style="display:inline"
     transform="translate(3.0937474,-9.6232905)">
    <path
       style="fill:currentColor;fill-opacity:1;fill-rule:evenodd;stroke:none;stroke-width:70;stroke-linecap:butt;stroke-linejoin:miter;stroke-miterlimit:4;stroke-opacity:1;display:inline"
       d="M 326.875,27.316121 C 250.93578,64.388704 174.01696,36.136088 94.375003,65.075748 C 36.83342,90.875417 20.717757,143.23812 -3.0937474,195.58266 C 139.03286,148.29494 227.51142,218.63553 356.34375,251.34216 C 356.17449,300.56313 348.45557,356.41826 344.78125,412.69278 C 329.57264,565.2096 409.93531,699.05458 526.125,794.3645 C 609.34565,979.68102 724.50215,1121.871 808.5625,1266.4678 C 798.54034,1331.4087 738.08781,1576.5598 708.28125,1664.5648 C 626.35892,1678.3284 536.64942,1683.7424 452.96875,1677.1308 C 404.21663,1670.28 350.15604,1755.7923 297.1875,1800.5985 L 1332.8438,1808.6875 C 1304.9166,1709.9309 1100.7515,1660.228 1046.9688,1666.263 C 1070.0531,1600.2391 1098.8327,1538.2176 1107.0312,1446.0037 C 1135.9362,1471.8655 1168.35,1499.8448 1208.8125,1502.7511 C 1258.2819,1499.0291 1278.3534,1465.2385 1284.625,1421.1497 C 1396.6837,1606.4961 1522.0025,1757.8405 1751.875,1780.0977 C 1831.3076,1776.2124 1930.2962,1741.4774 1951.7188,1657.0625 C 2057.0829,1651.1291 1979.8171,1548.4689 1940.7188,1508.2469 C 1653.9929,1197.9054 1417.3391,843.63014 1134.0312,530.97336 C 1024.9211,423.33634 901.7266,350.53258 749.15625,290.15153 C 737.79872,262.25581 734.07331,222.57358 726.6875,178.91038 C 718.62822,131.27869 693.21257,53.309292 646.75,29.045099 C 545.80059,-8.0002877 431.63046,17.581298 326.875,27.316121 z M 494.15625,74.338126 C 505.49295,127.18695 484.62237,188.18265 444.53125,206.17263 L 457.34375,233.52754 C 507.42713,209.72738 555.55487,138.46214 562.71875,74.492499 C 631.10025,78.553042 649.80077,130.05582 660.5,189.80909 C 673.32029,230.64309 660.31543,329.74671 712.0625,346.86815 C 864.89855,406.04878 981.7323,474.48808 1086.5938,577.93361 C 1267.5443,804.2289 1456.6479,1023.4088 1637.5938,1249.9499 C 1707.9057,1338.0961 1772.2015,1418.854 1824.4062,1479.7804 C 1549.6071,1274.3645 1242.5569,1117.2438 941.3264,953.98131 C 781.22489,866.99385 628.46875,795.85602 628.46875,604.33138 C 628.46875,501.34362 818.26946,415.04211 810.4375,401.63968 C 802.12386,387.41313 565.71875,460.01403 565.71875,629.83381 C 565.71875,673.02057 577.27722,713.10535 597.375,750.46082 C 597.07308,750.43931 596.77392,750.41717 596.46875,750.39908 C 377.72712,634.49507 412.45722,400.02824 420.9375,193.3288 C 330.04348,188.29757 255.16297,138.68869 168.84375,118.05655 C 235.79921,109.39465 302.54048,98.219034 369.65625,91.288278 C 357.06302,93.81115 345.54546,101.13151 337.875,111.35677 C 335.71487,154.9155 435.12232,150.28143 430.59375,117.84044 C 419.56293,100.66172 399.19169,89.682849 378.59375,90.331165 C 411.9714,85.546985 456.43366,78.447936 494.15625,74.338126 z M 625.6875,844.99883 C 761.57975,997.70155 874.09524,1171.9462 974.375,1348.934 C 995.4434,1374.9257 971.7354,1398.7169 954.3438,1423.4034 C 888.27304,1213.5884 736.19722,1051.6964 625.6875,844.99883 z M 792.46875,945.83526 C 1104.3812,1111.9953 1413.2338,1279.7215 1708.2188,1474.717 C 1777.6989,1531.0318 1839.6013,1593.7961 1881.5312,1652.4621 C 1853.7256,1695.6712 1800.8051,1710.5081 1751.875,1713.7791 C 1502.185,1705.0729 1404.4502,1464.3543 1272.5625,1292.3716 L 1200.8125,1205.2436 L 1213.1875,1316.8861 C 1214.1129,1338.7038 1238.2812,1448.8711 1194.9375,1429.949 L 1068.75,1278.8795 C 1055.253,1287.7753 1042.5482,1297.8834 1028.625,1306.1416 C 966.0275,1179.4657 874.40591,1061.5376 792.46875,945.83526 z M 876.21875,1403.9524 C 895.81011,1451.5706 905.97408,1502.0041 917.0625,1551.9962 C 948.9246,1526.1974 979.8205,1499.6972 1005.9688,1468.1407 C 988.9348,1560.7335 957.1491,1654.0984 880.0625,1654.0984 C 833.40576,1654.0984 811.79361,1622.5759 841.71875,1526.9877 C 855.81428,1481.9631 867.03715,1438.898 876.21875,1403.9524 z" />
  </g>
</svg>