<svg viewBox="-42.3 -37 928 994.8"
   version="1.1"
   xmlns="http://www.w3.org/2000/svg">
  <title>H8</title>
  <path
     d="M 222.01953,0.00195313 C 176.13706,-0.16869383 136.41697,9.9844886 103.36133,32.869141 l -0.125,0.08594 -0.125,0.08789 C 36.452484,79.9511 6.6906351,168.04855 0.69335937,285.99414 -5.4695438,407.1982 29.530118,536.01589 102.27734,671.67969 176.07979,809.31121 272.58073,893.33184 389.125,907.625 497.72303,920.94371 596.20163,898.78505 676.75977,840.48633 757.08837,782.35377 808.38136,697.37077 827.97656,593.20703 848.88237,482.07594 802.95297,367.09893 703.21289,254.39258 604.5745,142.93127 495.90078,66.788813 377.6543,29.072266 319.94829,10.666045 267.90201,0.17260008 222.01953,0.00195313 Z m 1.99609,80.92773387 c 33.90683,0.304304 76.8489,7.620316 129.32813,24.359373 102.124,32.57404 198.62273,98.9112 289.95898,202.1211 90.23442,101.96495 121.24203,190.26264 106.05274,271.00586 -16.50004,87.71057 -55.44406,150.90826 -119.4961,197.26171 -63.8225,46.1874 -138.22106,63.92112 -230.99609,52.54297 C 314.03461,817.81719 239.56007,758.40842 172.78125,633.875 104.94737,507.37392 75.354301,393.02256 80.589844,290.05664 85.98457,183.9611 113.15877,123.90427 149.02148,98.568359 165.36085,87.306 190.1888,80.626102 224.01562,80.929687 Z" />
  </svg>