<svg viewBox="-1 0.4 11 19.8"
   xmlns="http://www.w3.org/2000/svg"
   version="1.0">
  <path
     style="fill:currentColor;stroke:none"
     d="M 0.71208764,1.2027968 C 0.23250863,1.3239791 0.52763069,1.902205 0.97501185,1.8241316 C 1.8182385,1.9211783 2.8563387,1.9748655 3.4933377,2.4527968 C 4.3383635,3.3738435 3.9587052,5.2879073 4.0570877,6.1965468 C 4.0641413,6.2454728 4.0670877,9.8673801 4.0670877,11.702796 C 2.8875615,11.137658 1.4878896,10.977956 0.22583764,11.231546 C -0.26991002,11.491961 0.44045514,11.834914 0.76559789,11.749532 C 1.997765,11.882701 3.3987566,12.212834 4.0245877,13.359046 C 4.2293692,14.046224 3.3312826,13.239232 2.9620877,13.296546 C 2.0706861,13.104012 1.1052492,13.070093 0.22008835,13.222996 C -0.24907433,13.532717 0.44156012,13.815366 0.76559789,13.749532 C 2.0232639,13.901203 3.4149985,14.242157 4.0245877,15.390296 C 4.0315451,16.666676 4.0241992,17.51021 4.0583377,18.684046 C 4.0290547,19.404023 4.990715,19.402423 4.9933376,18.696554 C 4.9846388,17.53997 4.9020797,16.524773 5.0537344,15.402916 C 5.35964,14.144337 7.5433388,13.95119 8.8995877,13.640296 C 9.2397141,13.24043 8.41963,13.12949 8.0870877,13.171546 C 7.033732,13.090772 5.9393351,13.246963 4.9933377,13.734046 C 4.9611641,12.975438 5.7082261,12.538942 6.2433377,12.234046 C 7.0878836,11.870815 8.0176674,11.83515 8.8995877,11.640296 C 9.255947,11.330895 8.5741308,11.077029 8.2502036,11.149359 C 7.132296,11.041789 5.9809967,11.20666 4.9720877,11.702796 C 4.9887614,8.8376265 5.0351769,6.0647699 4.9529492,3.3544098 C 4.8869209,2.5163659 4.4040689,1.7471838 3.5918254,1.4965691 C 2.704638,1.0929775 1.6642125,1.0839462 0.71208764,1.2027968 z " />
</svg>