<svg viewBox="0 0 1777.6 499.29999"
   version="1.1"
   xmlns="http://www.w3.org/2000/svg">
  <title>M3</title>
  <path
     style="stroke-linejoin:round"
     d="m 522.52148,47.890625 -6.28515,89.781255 c 59.79586,4.18677 123.53169,12.84738 189.52929,24.00195 C 592.39557,219.89838 455.79833,278.7567 316.22656,316.58984 279.72394,302.80616 224.63058,277.58408 179.57422,244.36133 129.62898,207.5337 96.378906,164.58585 96.378906,120.13086 H 6.3789062 c 0,86.49804 58.5102268,151.48578 119.7832038,196.66602 15.08462,11.12279 30.58711,21.24942 46.01758,30.43554 -45.01658,6.72943 -89.577136,10.52344 -132.957034,10.52344 v 90 c 294.049384,0 607.781874,-145.53841 806.699224,-259.66992 54.76259,11.19785 110.46872,23.31477 166.36912,35.59375 -47.245,29.81509 -98.7651,55.2995 -159.4453,64.71093 l 13.79492,88.9375 c 123.966,-19.22699 212.63768,-88.70509 280.15428,-136.66992 l 628.0801,-5.63281 -0.8086,-89.99609 -672.6094,6.0332 C 904.21011,107.92969 702.54315,60.495329 522.52148,47.890625 Z" />
</svg>