<svg viewBox="0 0 5.325148 17.977417"
   xmlns="http://www.w3.org/2000/svg">
  <path
     style="fill:currentColor; stroke:none"
     d="M 5.325148,0.630344 C 5.2579113,0.77826467 5.1099907,0.811883 4.881386,0.731199 C 3.805598,0.46225233 3.1693557,0.472338 2.772659,0.761456 C 2.375963,1.050574 2.177615,1.706132 2.177615,2.72813 L 2.177615,17.977417 L 1.432142,17.977417 L 1.432142,9.666959 C 0.47738067,9.666959 0,9.196302 0,8.254988 C 0.013447333,7.3271213 0.490828,6.863188 1.432142,6.863188 L 1.432142,2.284367 C 1.432142,1.437185 1.738069,0.79171267 2.349923,0.34795 C 2.961777,-0.095812 3.8324927,-0.115983 4.96207,0.287437 C 5.2175693,0.35467367 5.3385953,0.468976 5.325148,0.630344 z M 1.432142,9.10217 L 1.432142,7.448147 C 0.86735333,7.448147 0.584959,7.717094 0.584959,8.254988 C 0.584959,8.819776 0.86735333,9.10217 1.432142,9.10217 z " />
  
</svg>