<svg viewBox="0 0 16.593866 8.4"
   xmlns="http://www.w3.org/2000/svg">
  <path
     style="fill:currentColor; stroke:none"
     d=" M 2.439264 5.531288  Q 2.851534 4.208589 2.439264 2.903068  L 14.137424 2.903068  Q 13.656444 4.225767 14.137424 5.531288  L 2.439264 5.531288  Z  M 3.95092 1.855215  L 4.878528 0.034356  L 1.065031 0.034356  L 1.97546 1.855215  L 3.95092 1.855215  Z  M 14.566872 1.855215  L 15.494479 0  L 11.680981 0  L 12.574233 1.838037  L 12.557056 1.855215  L 0 1.855215  L 0 2.903068  L 1.219632 2.903068  Q 1.683436 4.208589 1.219632 5.531288  L 0 5.531288  L 0 6.579141  L 7.283436 6.579141  L 6.390184 8.4  L 10.203681 8.4  L 9.276074 6.579141  L 16.593866 6.579141  L 16.593866 5.531288  L 15.391411 5.531288  Q 14.82454 4.225767 15.391411 2.903068  L 16.593866 2.903068  L 16.593866 1.855215  L 14.566872 1.855215  Z  M 12.711657 0.773006  L 14.498159 0.773006  L 13.948466 1.855215  L 13.26135 1.855215  L 12.711657 0.773006  Z  M 2.078527 0.773006  L 3.847853 0.773006  L 3.315337 1.855215  L 2.628221 1.855215  L 2.078527 0.773006  Z  M 7.936196 6.561964  L 8.606135 6.561964  L 9.155828 7.644172  L 7.386503 7.644172  L 7.936196 6.561964  Z " />
</svg>