<svg xmlns="http://www.w3.org/2000/svg" viewBox="25.9 -710.1 620.2 623.2">
	<path fill="currentColor" d="M336 -110Q255 -110 190 -143Q125 -176 87 -244Q49 -312 49 -417Q49 -452 51 -500.5Q53 -549 56.5 -599Q60 -649 63 -687L82 -685Q81 -674 79.5 -652Q78 -630 76 -604L116 -656L172 -585Q185 -602 199.5 -621.5Q214 -641 226 -656L282 -585Q295 -602 309.5 -622Q324 -642 336 -657L390 -585L446 -656L500 -585L556 -656L596 -604Q595 -630 593 -652Q591 -674 590 -685L609 -687Q612 -649 615.5 -599Q619 -549 621 -500.5Q623 -452 623 -417Q623 -312 585 -244Q547 -176 482.5 -143Q418 -110 336 -110ZM336 -129Q412 -129 472.5 -159.5Q533 -190 568.5 -254Q604 -318 604 -417Q604 -449 602 -490Q600 -531 598 -569L556 -625L500 -554L446 -625L390 -554L336 -625Q323 -609 308 -589Q293 -569 282 -554L226 -625Q213 -609 198.5 -589Q184 -569 172 -554L116 -625L74 -569Q72 -531 70 -490Q68 -449 68 -417Q68 -318 103.5 -254Q139 -190 199.5 -159.5Q260 -129 336 -129Z"/>
</svg>