<svg viewBox="-0.3223 -0.3099 9.0642 9.0376"
   xmlns="http://www.w3.org/2000/svg"
   version="1.0">
  <path
     style="fill:currentColor;stroke:none"
     d="M 4.183209,3.1597809 C 4.8206354,3.2128993 5.1659078,3.5493185 5.2190262,4.1690385 C 5.1836142,4.8418777 4.8383418,5.1960037 4.183209,5.2314165 C 3.5280762,5.1960037 3.1562442,4.8418777 3.067713,4.1690385 C 3.1385378,3.5493185 3.5103698,3.2128993 4.183209,3.1597809 z M 0.013378233,4.2221577 C 0.013378233,4.8064649 0.12404223,5.3509333 0.34537023,5.8555629 C 0.56669903,6.3601925 0.86327943,6.7984233 1.2351114,7.1702553 C 1.6069434,7.5420873 2.0496006,7.8386677 2.563083,8.0599965 C 3.0765654,8.2813245 3.6254606,8.3919885 4.2097686,8.3919885 C 4.7940758,8.3919885 5.3385438,8.2813245 5.8431726,8.0599965 C 6.3478022,7.8386677 6.7904598,7.5420873 7.1711454,7.1702553 C 7.5518302,6.7984233 7.852837,6.3601925 8.0741658,5.8555629 C 8.2954946,5.3509333 8.406159,4.8064649 8.406159,4.2221577 C 8.406159,3.6378505 8.2954946,3.0933821 8.0741658,2.5887525 C 7.852837,2.0841237 7.5518302,1.6414665 7.1711454,1.2607809 C 6.7904598,0.88009613 6.3478022,0.57908933 5.8431726,0.35776053 C 5.3385438,0.13643173 4.7940758,0.025767326 4.2097686,0.025767326 C 3.6254606,0.025767326 3.0765654,0.13643173 2.563083,0.35776053 C 2.0496006,0.57908933 1.6069434,0.88009613 1.2351114,1.2607809 C 0.86327943,1.6414665 0.56669903,2.0841237 0.34537023,2.5887525 C 0.12404223,3.0933821 0.013378233,3.6378505 0.013378233,4.2221577 z M 0.86327943,4.2487173 C 0.86327943,3.8060597 0.95181103,3.3855353 1.1288742,2.9871441 C 1.3059366,2.5887529 1.5449714,2.2346273 1.8459786,1.9247673 C 2.146985,1.6149073 2.5055374,1.3714458 2.9216358,1.1943825 C 3.3377334,1.0173193 3.784817,0.92878773 4.2628866,0.92878773 C 4.740957,0.92878773 5.1836146,1.0173193 5.5908594,1.1943825 C 5.9981034,1.3714458 6.3566554,1.6149073 6.6665154,1.9247673 C 6.9763754,2.2346273 7.219837,2.5887529 7.3969002,2.9871441 C 7.5739626,3.3855353 7.6624938,3.8060597 7.6624938,4.2487173 C 7.6624938,4.7090805 7.5739626,5.1384581 7.3969002,5.5368501 C 7.219837,5.9352413 6.9763754,6.2849405 6.6665154,6.5859477 C 6.3566554,6.8869541 5.9981034,7.1215625 5.5908594,7.2897729 C 5.1836146,7.4579825 4.740957,7.5420873 4.2628866,7.5420873 C 3.784817,7.5420873 3.3377334,7.4579825 2.9216358,7.2897729 C 2.5055374,7.1215625 2.146985,6.8869541 1.8459786,6.5859477 C 1.5449714,6.2849405 1.3059366,5.9352413 1.1288742,5.5368501 C 0.95181103,5.1384581 0.86327943,4.7090805 0.86327943,4.2487173 z " />
</svg>