<!-- Created with Inkscape (http://www.inkscape.org/) -->
<svg viewBox="-56.3 1496.5 1915.4 364.7"
   xmlns="http://www.w3.org/2000/svg">
  <g>
    <path
       d="M 1788.1734,1686.6528 C 1788.1734,1727.9635 1523.4966,1773.1101 1388.6027,1776.2841 C 1126.2626,1782.4568 866.15622,1716.9908 603.48131,1720.2041 C 484.11056,1721.6642 343.89104,1735.8226 242.46567,1790.3041 C 208.36413,1770.7013 172.63799,1756.9262 140.76337,1741.2341 C 96.696195,1719.5394 14.640280,1739.2537 14.640280,1678.8933 C 14.640280,1618.5331 96.696195,1638.2472 140.76337,1616.5527 C 172.63799,1600.8606 208.36413,1587.0855 242.46567,1567.4826 C 343.89104,1621.9642 484.11056,1636.1225 603.48131,1637.5828 C 866.15622,1640.7958 1126.2626,1575.3299 1388.6027,1581.5026 C 1523.4966,1584.6765 1788.1734,1645.3421 1788.1734,1686.6528 z M 235.07616,1598.0905 L 235.07616,1748.8561"
       style="color:#000000;fill:none;fill-opacity:1.0000000;fill-rule:evenodd;stroke:#000000;stroke-width:60.000000;stroke-linecap:round;stroke-linejoin:round;stroke-miterlimit:4.0000000;stroke-dashoffset:0.0000000;stroke-opacity:1.0000000;marker:none;marker-start:none;marker-mid:none;marker-end:none;visibility:visible;display:inline;overflow:visible" />
  </g>
</svg>