<svg viewBox="0 0 18.359375 2.460938"
   xmlns="http://www.w3.org/2000/svg">
  <path
     style="fill:currentColor; stroke:none"
     d="M 9.03125,1.949219 C 8.7604167,2.1888023 8.4895833,2.342448 8.21875,2.410156 C 7.9479167,2.4778647 7.6744793,2.4778647 7.398438,2.410156 C 7.122396,2.342448 6.8229167,2.1888023 6.5,1.949219 L 0,1.949219 L 0,0.511719 L 6.5,0.511719 C 6.8229167,0.27213567 7.122396,0.11848967 7.398438,0.050781 C 7.6744793,-0.016927 7.9479167,-0.016927 8.21875,0.050781 C 8.4895833,0.11848967 8.7604167,0.27213567 9.03125,0.511719 L 9.28125,0.511719 C 9.5416667,0.27213567 9.809896,0.11848967 10.085938,0.050781 C 10.361979,-0.016927 10.638021,-0.016927 10.914062,0.050781 C 11.190104,0.11848967 11.484375,0.27213567 11.796875,0.511719 L 18.359375,0.511719 L 18.359375,1.949219 L 11.796875,1.949219 C 11.484375,2.1888023 11.190104,2.342448 10.914062,2.410156 C 10.638021,2.4778647 10.361979,2.4778647 10.085938,2.410156 C 9.809896,2.342448 9.5416667,2.1888023 9.28125,1.949219 L 9.03125,1.949219 z " />
</svg>