<svg xmlns="http://www.w3.org/2000/svg" viewBox="21.4 -694.6 744.2 745.2">
	<path fill="currentColor" d="M394 23Q322 23 259.5 -3.5Q197 -30 149.5 -77.5Q102 -125 75.5 -187.5Q49 -250 49 -322Q49 -393 75.5 -455.5Q102 -518 149.5 -565.5Q197 -613 259.5 -640Q322 -667 394 -667Q465 -667 527.5 -640Q590 -613 637.5 -565.5Q685 -518 711.5 -455.5Q738 -393 738 -322Q738 -250 711.5 -187.5Q685 -125 637.5 -77.5Q590 -30 527.5 -3.5Q465 23 394 23ZM394 3Q461 3 520 -22Q579 -47 623.5 -92Q668 -137 693.5 -196Q719 -255 719 -322Q719 -389 693.5 -448Q668 -507 623.5 -551.5Q579 -596 520 -621.5Q461 -647 394 -647Q327 -647 267.5 -621.5Q208 -596 163.5 -551.5Q119 -507 93.5 -448Q68 -389 68 -322Q68 -255 93.5 -196Q119 -137 163.5 -92Q208 -47 267.5 -22Q327 3 394 3ZM445 -554Q431 -554 420.5 -564.5Q410 -575 410 -589Q410 -604 420.5 -614.5Q431 -625 445 -625Q460 -625 470.5 -614.5Q481 -604 481 -589Q481 -575 470.5 -564.5Q460 -554 445 -554ZM352 -554Q338 -554 327 -564.5Q316 -575 316 -589Q316 -604 327 -614.5Q338 -625 352 -625Q367 -625 377.5 -614.5Q388 -604 388 -589Q388 -575 377.5 -564.5Q367 -554 352 -554ZM445 -569Q453 -569 459 -575.5Q465 -582 465 -589Q465 -597 459 -603Q453 -609 445 -609Q438 -609 431.5 -603Q425 -597 425 -589Q425 -582 431.5 -575.5Q438 -569 445 -569ZM352 -569Q360 -569 366 -575.5Q372 -582 372 -589Q372 -597 366 -603Q360 -609 352 -609Q344 -609 338 -603Q332 -597 332 -589Q332 -582 338 -575.5Q344 -569 352 -569ZM525 -525Q511 -525 500.5 -535.5Q490 -546 490 -561Q490 -575 500.5 -585.5Q511 -596 525 -596Q540 -596 550.5 -585.5Q561 -575 561 -561Q561 -546 550.5 -535.5Q540 -525 525 -525ZM265 -525Q251 -525 240 -535.5Q229 -546 229 -561Q229 -575 240 -585.5Q251 -596 265 -596Q280 -596 290.5 -585.5Q301 -575 301 -561Q301 -546 290.5 -535.5Q280 -525 265 -525ZM525 -541Q533 -541 539 -547Q545 -553 545 -561Q545 -569 539 -575Q533 -581 525 -581Q518 -581 511.5 -575Q505 -569 505 -561Q505 -553 511.5 -547Q518 -541 525 -541ZM265 -541Q273 -541 279 -547Q285 -553 285 -561Q285 -569 279 -575Q273 -581 265 -581Q257 -581 251 -575Q245 -569 245 -561Q245 -553 251 -547Q257 -541 265 -541ZM597 -467Q583 -467 572.5 -477.5Q562 -488 562 -502Q562 -517 572.5 -527.5Q583 -538 597 -538Q612 -538 622.5 -527.5Q633 -517 633 -502Q633 -488 622.5 -477.5Q612 -467 597 -467ZM195 -466Q181 -466 170.5 -476.5Q160 -487 160 -501Q160 -516 170.5 -526.5Q181 -537 195 -537Q210 -537 220.5 -526.5Q231 -516 231 -501Q231 -487 220.5 -476.5Q210 -466 195 -466ZM597 -482Q605 -482 611 -488.5Q617 -495 617 -502Q617 -510 611 -516Q605 -522 597 -522Q589 -522 583 -516Q577 -510 577 -502Q577 -495 583 -488.5Q589 -482 597 -482ZM195 -481Q203 -481 209 -487.5Q215 -494 215 -501Q215 -509 209 -515Q203 -521 195 -521Q188 -521 181.5 -515Q175 -509 175 -501Q175 -494 181.5 -487.5Q188 -481 195 -481ZM147 -393Q132 -393 121.5 -403.5Q111 -414 111 -428Q111 -443 121.5 -453.5Q132 -464 147 -464Q162 -464 172.5 -453.5Q183 -443 183 -428Q183 -414 172.5 -403.5Q162 -393 147 -393ZM417 -392Q402 -392 391.5 -402.5Q381 -413 381 -427Q381 -442 391.5 -452.5Q402 -463 417 -463Q431 -463 441.5 -452.5Q452 -442 452 -427Q452 -413 441.5 -402.5Q431 -392 417 -392ZM641 -389Q627 -389 616 -399.5Q605 -410 605 -425Q605 -439 616 -449.5Q627 -460 641 -460Q656 -460 666.5 -449.5Q677 -439 677 -425Q677 -410 666.5 -399.5Q656 -389 641 -389ZM147 -408Q155 -408 161 -414Q167 -420 167 -428Q167 -436 161 -442Q155 -448 147 -448Q139 -448 133 -442Q127 -436 127 -428Q127 -420 133 -414Q139 -408 147 -408ZM417 -407Q425 -407 431 -413.5Q437 -420 437 -427Q437 -435 431 -441Q425 -447 417 -447Q409 -447 402.5 -441Q396 -435 396 -427Q396 -420 402.5 -413.5Q409 -407 417 -407ZM641 -405Q649 -405 655 -411Q661 -417 661 -425Q661 -433 655 -439Q649 -445 641 -445Q633 -445 627 -439Q621 -433 621 -425Q621 -417 627 -411Q633 -405 641 -405ZM317 -368Q303 -368 292.5 -378.5Q282 -389 282 -404Q282 -418 292.5 -428.5Q303 -439 317 -439Q332 -439 342.5 -428.5Q353 -418 353 -404Q353 -389 342.5 -378.5Q332 -368 317 -368ZM317 -384Q325 -384 331 -390Q337 -396 337 -404Q337 -412 331 -418Q325 -424 317 -424Q310 -424 303.5 -418Q297 -412 297 -404Q297 -396 303.5 -390Q310 -384 317 -384ZM495 -344Q480 -344 469.5 -354.5Q459 -365 459 -380Q459 -394 469.5 -405Q480 -416 495 -416Q509 -416 519.5 -405Q530 -394 530 -380Q530 -365 519.5 -354.5Q509 -344 495 -344ZM495 -360Q503 -360 509 -366Q515 -372 515 -380Q515 -388 509 -394Q503 -400 495 -400Q487 -400 481 -394Q475 -388 475 -380Q475 -372 481 -366Q487 -360 495 -360ZM660 -306Q646 -306 635.5 -316.5Q625 -327 625 -342Q625 -356 635.5 -366.5Q646 -377 660 -377Q675 -377 685.5 -366.5Q696 -356 696 -342Q696 -327 685.5 -316.5Q675 -306 660 -306ZM129 -306Q114 -306 103.5 -316.5Q93 -327 93 -342Q93 -356 103.5 -366.5Q114 -377 129 -377Q143 -377 154 -366.5Q165 -356 165 -342Q165 -327 154 -316.5Q143 -306 129 -306ZM129 -322Q137 -322 143 -328Q149 -334 149 -342Q149 -350 143 -356Q137 -362 129 -362Q121 -362 115 -356Q109 -350 109 -342Q109 -334 115 -328Q121 -322 129 -322ZM660 -322Q668 -322 674 -328Q680 -334 680 -342Q680 -350 674 -356Q668 -362 660 -362Q652 -362 646 -356Q640 -350 640 -342Q640 -334 646 -328Q652 -322 660 -322ZM292 -274Q277 -274 266.5 -285Q256 -296 256 -310Q256 -325 266.5 -335.5Q277 -346 292 -346Q307 -346 317.5 -335.5Q328 -325 328 -310Q328 -296 317.5 -285Q307 -274 292 -274ZM292 -290Q300 -290 306 -296Q312 -302 312 -310Q312 -318 306 -324Q300 -330 292 -330Q284 -330 278 -324Q272 -318 272 -310Q272 -302 278 -296Q284 -290 292 -290ZM506 -240Q492 -240 481.5 -250.5Q471 -261 471 -276Q471 -290 481.5 -301Q492 -312 506 -312Q521 -312 531.5 -301Q542 -290 542 -276Q542 -261 531.5 -250.5Q521 -240 506 -240ZM506 -256Q514 -256 520 -262Q526 -268 526 -276Q526 -284 520 -290Q514 -296 506 -296Q499 -296 492.5 -290Q486 -284 486 -276Q486 -268 492.5 -262Q499 -256 506 -256ZM655 -221Q641 -221 630.5 -231.5Q620 -242 620 -257Q620 -271 630.5 -281.5Q641 -292 655 -292Q670 -292 680.5 -281.5Q691 -271 691 -257Q691 -242 680.5 -231.5Q670 -221 655 -221ZM135 -219Q120 -219 109.5 -229.5Q99 -240 99 -255Q99 -269 109.5 -280Q120 -291 135 -291Q149 -291 159.5 -280Q170 -269 170 -255Q170 -240 159.5 -229.5Q149 -219 135 -219ZM655 -237Q663 -237 669 -243Q675 -249 675 -257Q675 -265 669 -271Q663 -277 655 -277Q648 -277 641.5 -271Q635 -265 635 -257Q635 -249 641.5 -243Q648 -237 655 -237ZM135 -235Q143 -235 149 -241Q155 -247 155 -255Q155 -263 149 -269Q143 -275 135 -275Q127 -275 121 -269Q115 -263 115 -255Q115 -247 121 -241Q127 -235 135 -235ZM336 -184Q322 -184 311.5 -194.5Q301 -205 301 -219Q301 -234 311.5 -244.5Q322 -255 336 -255Q351 -255 361.5 -244.5Q372 -234 372 -219Q372 -205 361.5 -194.5Q351 -184 336 -184ZM434 -171Q419 -171 408.5 -181.5Q398 -192 398 -207Q398 -221 408.5 -231.5Q419 -242 434 -242Q448 -242 458.5 -231.5Q469 -221 469 -207Q469 -192 458.5 -181.5Q448 -171 434 -171ZM336 -199Q344 -199 350 -205Q356 -211 356 -219Q356 -227 350 -233Q344 -239 336 -239Q329 -239 322.5 -233Q316 -227 316 -219Q316 -211 322.5 -205Q329 -199 336 -199ZM434 -187Q442 -187 448 -193Q454 -199 454 -207Q454 -215 448 -221Q442 -227 434 -227Q426 -227 420 -221Q414 -215 414 -207Q414 -199 420 -193Q426 -187 434 -187ZM621 -143Q607 -143 596 -153.5Q585 -164 585 -178Q585 -193 596 -203.5Q607 -214 621 -214Q636 -214 646.5 -203.5Q657 -193 657 -178Q657 -164 646.5 -153.5Q636 -143 621 -143ZM173 -136Q158 -136 147.5 -146.5Q137 -157 137 -172Q137 -186 147.5 -197Q158 -208 173 -208Q187 -208 197.5 -197Q208 -186 208 -172Q208 -157 197.5 -146.5Q187 -136 173 -136ZM621 -158Q629 -158 635 -164Q641 -170 641 -178Q641 -186 635 -192Q629 -198 621 -198Q613 -198 607 -192Q601 -186 601 -178Q601 -170 607 -164Q613 -158 621 -158ZM173 -152Q181 -152 187 -158Q193 -164 193 -172Q193 -180 187 -186Q181 -192 173 -192Q165 -192 159 -186Q153 -180 153 -172Q153 -164 159 -158Q165 -152 173 -152ZM235 -77Q221 -77 210.5 -87.5Q200 -98 200 -112Q200 -127 210.5 -137.5Q221 -148 235 -148Q250 -148 260.5 -137.5Q271 -127 271 -112Q271 -98 260.5 -87.5Q250 -77 235 -77ZM558 -73Q543 -73 532.5 -83.5Q522 -94 522 -109Q522 -123 532.5 -134Q543 -145 558 -145Q572 -145 582.5 -134Q593 -123 593 -109Q593 -94 582.5 -83.5Q572 -73 558 -73ZM235 -92Q243 -92 249 -98.5Q255 -105 255 -112Q255 -120 249 -126Q243 -132 235 -132Q228 -132 221.5 -126Q215 -120 215 -112Q215 -105 221.5 -98.5Q228 -92 235 -92ZM558 -89Q566 -89 572 -95Q578 -101 578 -109Q578 -117 572 -123Q566 -129 558 -129Q550 -129 544 -123Q538 -117 538 -109Q538 -101 544 -95Q550 -89 558 -89ZM485 -31Q471 -31 460.5 -41.5Q450 -52 450 -66Q450 -81 460.5 -91.5Q471 -102 485 -102Q500 -102 510.5 -91.5Q521 -81 521 -66Q521 -52 510.5 -41.5Q500 -31 485 -31ZM313 -27Q299 -27 288.5 -37.5Q278 -48 278 -63Q278 -77 288.5 -87.5Q299 -98 313 -98Q328 -98 338.5 -87.5Q349 -77 349 -63Q349 -48 338.5 -37.5Q328 -27 313 -27ZM401 -18Q386 -18 375.5 -28.5Q365 -39 365 -53Q365 -68 375.5 -78.5Q386 -89 401 -89Q415 -89 426 -78.5Q437 -68 437 -53Q437 -39 426 -28.5Q415 -18 401 -18ZM485 -46Q493 -46 499 -52.5Q505 -59 505 -66Q505 -74 499 -80Q493 -86 485 -86Q478 -86 471.5 -80Q465 -74 465 -66Q465 -59 471.5 -52.5Q478 -46 485 -46ZM313 -42Q321 -42 327 -48.5Q333 -55 333 -63Q333 -71 327 -77Q321 -83 313 -83Q306 -83 299.5 -77Q293 -71 293 -63Q293 -55 299.5 -48.5Q306 -42 313 -42ZM401 -33Q409 -33 415 -39Q421 -45 421 -53Q421 -61 415 -67Q409 -73 401 -73Q393 -73 387 -67Q381 -61 381 -53Q381 -45 387 -39Q393 -33 401 -33Z"/>
</svg>