<svg viewBox="0 0 16.381042 10.836243"
   xmlns="http://www.w3.org/2000/svg">
  <path
     style="fill:currentColor; stroke:none"
     d="M 13.25 0 C 12.241058 -0.045288 11.670593 0.129272 10.90625 0.78125 L 8.3125 3.75 C 6.7402343 4.8123471 4.752625 4.696655 3.25 5.65625 C 1.4045111 6.834808 3.046265 7.707214 0 7.71875 L 0 8.65625 L 2.15625 8.65625 L 2.15625 10.84375 L 3.125 10.84375 L 3.125 8.65625 L 13 8.65625 L 13 10.84375 L 13.96875 10.84375 L 13.96875 8.65625 L 16.375 8.65625 L 16.375 7.9375 L 13.96875 7.9375 L 13.96875 6.25 L 15.1875 6.25 C 15.1875 4.4188242 15.905121 0.118988 13.25 0 z M 12.84375 0.53125 C 12.957782 0.52529509 13.067444 0.54284663 13.1875 0.5625 C 14.422028 0.764587 14.455932 1.86734 14.46875 2.875 L 14.46875 5.53125 L 13.25 5.53125 L 13.25 7.71875 L 2.65625 7.71875 C 3.156128 5.4494322 6.767822 5.493836 8.65625 4.3125 C 10.049139 3.4413186 11.133263 0.6205736 12.84375 0.53125 z " />
</svg>