<svg viewBox="0 0 7.608129 17.977417"
   xmlns="http://www.w3.org/2000/svg">
  <path
     style="fill:currentColor; stroke:none"
     d=" M 2.904596 0.788903  L 2.904596 0  L 4.67365 0  L 4.67365 0.788903  L 7.351138 0.788903  Q 7.805355 1.171401 7.351138 1.553899  L 6.22755 1.553899  Q 6.0363 1.769054 6.060206 2.294989  L 7.351138 2.294989  Q 7.805355 2.677488 7.351138 3.059986  L 6.22755 3.059986  Q 6.0363 3.275141 6.060206 3.801076  L 7.351138 3.801076  Q 7.829261 4.159668 7.422856 4.566072  L 6.22755 4.566072  Q 6.0363 4.733416 6.060206 5.307163  L 7.351138 5.307163  Q 7.829261 5.713567 7.351138 6.072159  L 6.22755 6.072159  Q 5.701614 6.598094 5.821145 9.108239  L 5.821145 14.989149  Q 5.940676 16.064926 7.088171 17.977417  L 0.537888 17.977417  Q 1.541946 16.303988 1.709289 14.989149  L 1.709289 9.108239  Q 1.757101 6.574188 1.326791 6.072159  L 0.227108 6.072159  Q -0.227108 5.665755 0.227108 5.307163  L 1.51804 5.307163  Q 1.565852 4.781228 1.326791 4.566072  L 0.227108 4.566072  Q -0.227108 4.183574 0.227108 3.801076  L 1.51804 3.801076  Q 1.541946 3.275141 1.326791 3.059986  L 0.227108 3.059986  Q -0.227108 2.677488 0.227108 2.294989  L 1.51804 2.294989  Q 1.541946 1.769054 1.326791 1.553899  L 0.227108 1.553899  Q -0.227108 1.171401 0.227108 0.788903  L 2.904596 0.788903  Z  M 3.263188 0.788903  L 4.291152 0.788903  L 4.291152 0.382498  L 3.263188 0.382498  L 3.263188 0.788903  Z  M 2.1396 2.294989  L 5.414741 2.294989  Q 5.414741 1.769054 5.60599 1.553899  L 1.972257 1.553899  Q 2.163506 1.769054 2.1396 2.294989  Z  M 2.1396 3.801076  L 5.414741 3.801076  Q 5.366929 3.275141 5.60599 3.059986  L 1.972257 3.059986  Q 2.163506 3.275141 2.1396 3.801076  Z  M 2.1396 5.307163  L 5.414741 5.307163  Q 5.414741 4.733416 5.60599 4.566072  L 1.972257 4.566072  Q 2.187412 4.781228 2.1396 5.307163  Z  M 5.199585 7.673871  Q 5.175679 6.669813 5.510365 6.072159  L 1.996163 6.072159  Q 2.354755 6.669813 2.306942 7.673871  L 5.199585 7.673871  Z  M 5.199585 8.1759  L 2.306942 8.1759  L 2.306942 8.343243  L 5.199585 8.343243  L 5.199585 8.510586  L 2.306942 8.510586  L 2.306942 8.677929  L 5.199585 8.677929  L 5.199585 8.845272  L 2.306942 8.845272  L 2.306942 9.012614  L 5.199585 9.012614  L 5.199585 9.179957  L 2.306942 9.179957  L 2.306942 14.989149  Q 1.996163 16.399612 1.565852 17.355858  L 5.964582 17.355858  Q 5.414741 16.064926 5.199585 14.989149  L 5.199585 8.1759  Z  M 5.199585 7.841214  L 2.306942 7.841214  L 2.306942 8.008556  L 5.199585 8.008556  L 5.199585 7.841214  Z " />
</svg>