<svg viewBox="0 0 11.612087 17.977417"
   xmlns="http://www.w3.org/2000/svg">
  <path
     style="fill:currentColor; stroke:none"
     d="M 10.760845,0.59542548 C 9.227483,1.3084292 10.854321,1.862659 5.4087031,5.6932484 C 3.1481498,8.0875617 1.2556213,10.6043 1.0030071,12.81823 C 1.0966398,13.139255 2.2044495,13.618194 3.0532755,14.327568 C 3.1919003,14.443419 4.412345,13.846717 4.3420002,15.090049 C 4.3254688,15.382238 4.0613647,16.240861 3.724848,16.653762 C 3.8853607,17.068419 4.1867047,17.15479 4.494354,17.114662 C 5.0962767,16.740133 5.624631,16.044578 6.079417,15.027997 C 7.007576,13.56497 9.1044749,9.1275925 9.3173433,5.6513313 C 10.140626,2.0790758 11.275545,1.6694523 10.760845,0.59542548 z M 10.270986,5.0994585 C 10.163978,5.6880045 10.108071,7.1420468 9.7870457,8.2656355 C 9.439269,9.4427282 7.1864791,16.066391 5.156469,17.536007 C 4.8679698,17.744865 4.7484993,17.977417 4.534482,17.977417 C 4.454226,17.977417 4.3672817,17.964041 4.273649,17.937288 C 4.0462563,17.790151 2.8007824,17.61246 2.8479511,16.747586 C 2.8545069,16.627381 4.1447288,15.395721 3.330637,15.088189 C 2.9348145,14.938663 2.5330348,15.897669 2.2997246,15.442846 C 1.7972977,14.463398 0.06688,13.824152 0,13.784024 C 0.013376,12.834324 0.31929978,11.940109 0.662115,10.995116 C 1.3764308,9.0260565 4.3074683,5.1435581 6.9847634,3.6139974 C 8.6789529,2.2799081 9.4082572,0.80057632 9.5849957,0.361153 C 9.9000648,-0.42220007 12.095125,-0.45057379 11.694897,1.3171893 C 11.643909,1.5423958 10.768579,2.8740495 10.270986,5.0994585 z " />
</svg>