<!-- Created with Inkscape (http://www.inkscape.org/) -->
<svg viewBox="-66 638.4 1216.6 1216.6"
   xmlns="http://www.w3.org/2000/svg"
   version="1.0">
  <g
     style="display:inline">
    <path
       style="opacity:1;fill:currentColor;fill-opacity:1;fill-rule:nonzero;stroke:none;stroke-width:53.58904648;stroke-linecap:round;stroke-linejoin:round;marker:none;stroke-miterlimit:4;stroke-dasharray:none;stroke-dashoffset:0;stroke-opacity:1;visibility:visible;display:inline;overflow:visible;enable-background:accumulate"
       d="M 542.3125 683.4375 C 231.739 683.43747 -20.90625 936.08274 -20.90625 1246.6562 C -20.906251 1557.2298 231.73903 1809.9062 542.3125 1809.9062 C 852.88594 1809.9063 1105.5624 1557.2298 1105.5625 1246.6562 C 1105.5625 936.0828 852.88597 683.4375 542.3125 683.4375 z M 542.3125 743.4375 C 820.42218 743.43749 1045.5625 968.54658 1045.5625 1246.6562 C 1045.5625 1524.7659 820.42221 1749.9063 542.3125 1749.9062 C 264.20276 1749.9063 39.09375 1524.7659 39.09375 1246.6562 C 39.093752 968.54664 264.20279 743.4375 542.3125 743.4375 z M 542.3125 838.8125 C 317.51228 838.81247 134.46875 1021.8559 134.46875 1246.6562 C 134.46875 1471.4564 317.51225 1654.5001 542.3125 1654.5 C 767.11279 1654.5 950.15623 1471.4565 950.15625 1246.6562 C 950.15623 1021.8559 767.11276 838.8125 542.3125 838.8125 z M 542.3125 898.8125 C 734.64902 898.81251 890.15625 1054.3197 890.15625 1246.6562 C 890.15623 1438.9927 734.64899 1594.5 542.3125 1594.5 C 349.97604 1594.5 194.46875 1438.9928 194.46875 1246.6562 C 194.46875 1054.3196 349.97601 898.8125 542.3125 898.8125 z " />
  </g>
</svg>