<!-- Created with Inkscape (http://www.inkscape.org/) -->
<svg viewBox="-68.4 -80 777.1 1963.2"
   xmlns="http://www.w3.org/2000/svg">
  <g>
    <path
       d="M 260.34227,-3.6466858 C 123.51601,-7.3371658 4.3475521,124.13635 14.307392,259.26587 C 7.0423221,364.01619 28.847172,467.61706 34.613772,571.85715 C 56.046292,612.83398 118.09451,598.50828 139.02976,564.16626 C 170.64546,519.90774 156.69264,462.76136 143.79942,414.58252 C 129.62207,328.61095 124.4015,232.86233 171.6962,155.65641 C 235.27649,70.516804 384.74835,74.378794 439.92107,166.93874 C 486.02847,234.53339 473.64595,332.91918 414.46255,388.76017 C 357.4004,456.30934 271.7765,500.85371 235.17858,584.5368 C 211.87431,668.88758 231.43051,756.81798 223.59868,842.69708 C 216.11132,1155.9359 212.19042,1469.2441 206.26224,1782.5134 C 239.51862,1810.4338 284.93708,1791.493 323.45833,1800.3303 C 366.09076,1778.475 362.6901,1723.7033 359.52805,1683.1496 C 344.44626,1354.563 355.43564,1025.5293 347.21069,696.79698 C 348.09946,659.31638 335.94883,616.32188 375.51259,594.88206 C 454.31994,518.38075 538.28129,442.17725 586.74367,341.65141 C 636.05245,195.74573 525.69335,21.015554 372.89217,2.4595442 C 335.9519,-5.1702658 297.89023,-6.9034858 260.34227,-3.6466858 z "
       style="color:black;fill:currentColor;fill-opacity:1;fill-rule:nonzero;stroke:none;stroke-width:0.19435303;stroke-linecap:butt;stroke-linejoin:miter;marker:none;marker-start:none;marker-mid:none;marker-end:none;stroke-miterlimit:4;stroke-dashoffset:0;stroke-opacity:1;visibility:visible;display:inline;overflow:visible" />
    
  </g>
</svg>