<!-- Created with Inkscape (http://www.inkscape.org/) -->
<svg viewBox="-0.7 -0.7 5.9 19.4"
   xmlns="http://www.w3.org/2000/svg"
   version="1.0">
  <path
     style="color:#000000;fill:currentColor;fill-opacity:1;fill-rule:nonzero;stroke:none;stroke-width:28.68938065;stroke-linecap:butt;stroke-linejoin:miter;marker:none;marker-start:none;marker-mid:none;marker-end:none;stroke-miterlimit:4;stroke-dashoffset:0;stroke-opacity:1;visibility:visible;display:inline;overflow:visible"
     d="M 1.3427165,0.035893929 L 1.3427165,0.86943413 C 0.58680672,1.0513328 -0.0251849,1.6381488 0.021597189,3.5941486 C 0.051188809,4.8314 0.83857352,6.0146538 1.5015325,6.2511327 L 1.3184684,18.031404 L 3.1704334,18.031404 L 2.824941,6.2908715 C 3.8547403,6.0149375 4.3220162,4.5176588 4.3510574,3.6039194 C 4.4134335,1.6257519 3.6001619,1.0305012 2.9263798,0.84996164 L 2.9263798,0.035893929 L 1.3427165,0.035893929 z M 1.9141794,0.60736045 L 2.3549159,0.60736045 L 2.3549159,1.4091513 C 2.6459918,1.4007808 2.8252672,1.3980363 2.9673947,1.458546 C 3.7376284,1.732794 3.791779,2.9217384 3.7632188,3.5843498 C 3.7231217,4.4990303 3.2678771,5.5583297 2.5790102,5.729864 C 2.2972108,5.8119745 1.9473853,5.8214675 1.6699193,5.7064956 C 1.1954257,5.4933434 0.59851822,4.4235182 0.59851822,3.5972538 C 0.59851822,2.2553375 0.808462,1.7021175 1.3579918,1.4597156 C 1.5352931,1.3875921 1.7280886,1.4144227 1.9141794,1.4091513 L 1.9141794,0.60736045 z M 2.143293,6.5554396 L 2.441475,12.650933 L 2.0082096,12.649144 L 2.143293,6.5554396 z M 1.9957583,13.23061 L 2.4582829,13.233643 L 2.4719778,13.73679 L 1.9845515,13.737956 L 1.9957583,13.23061 z M 2.4887857,14.308254 L 2.4993684,14.666197 L 1.9640104,14.667361 L 1.972103,14.310665 L 2.4887857,14.308254 z M 2.5161761,15.247661 L 2.5317386,15.786793 L 1.9391105,15.794104 L 1.9515593,15.24007 L 2.5161761,15.247661 z M 2.5485465,16.35888 L 2.5821621,17.45994 L 1.9023815,17.45994 L 1.9266591,16.368057 L 2.5485465,16.35888 z " />
</svg>