<svg viewBox="-0.9 -1.2 12.9 18.7"
   xmlns="http://www.w3.org/2000/svg">
  <path
     style="fill:currentColor; stroke:none"
     d=" M 11.0347 8.312232  Q 11.273488 9.788365 10.057849 9.24567  L 5.73799 5.359969  Q 4.326981 6.597314 3.545499 8.247111  Q 6.215562 13.15308 8.56001 15.34557  L 8.690254 16.799999  L 8.169267 16.799999  Q 5.23871 13.478697 2.807433 9.006883  Q 1.808873 9.072006 2.243029 7.595875  Q 0.875436 4.014083 0.680066 3.058939  Q 0.484695 2.103794 0.593234 1.691345  Q 0.701773 1.278896 0.028831 0.953279  Q -0.209955 -0.501146 1.526671 0.258628  L 5.43408 3.666758  Q 6.714842 3.384556 6.693134 4.600194  L 11.0347 8.312232  Z  M 5.13017 4.730441  L 1.526671 1.561098  Q 1.917412 4.274576 3.111343 7.096595  Q 4.370398 5.902665 5.13017 4.730441  Z " />
</svg>