<!-- Created with Inkscape (http://www.inkscape.org/) -->
<svg viewBox="-0.0645 -0.6181 19.0552 11.0623"
   xmlns="http://www.w3.org/2000/svg">
  <path
     style="fill:currentColor;stroke:none"
     d="M 14.72657,1.1327056 C 15.459528,1.808387 15.395584,2.2542002 14.534738,2.4701454 L 8.7374043,2.0818576 C 8.506995,3.3115857 8.5265357,4.5198519 8.7960263,5.706657 C 12.215926,7.1797338 14.991865,8.0084508 17.123841,8.1928058 L 18.124503,9.2562918 L 17.714742,9.5780428 C 14.810692,9.0431188 11.800695,8.1037848 8.6847494,6.7600388 C 8.1879778,7.2053108 7.7495385,6.9515748 7.3694323,5.9988312 C 5.177658,4.6838198 3.8339247,3.8161233 3.3382333,3.3957414 C 2.8425416,2.9753589 2.5382446,2.6346922 2.4253426,2.3737416 C 2.3124413,2.1127903 2.0125335,2.0354798 1.5256207,2.141809 C 0.80160187,1.4775088 1.0512898,0.98704769 2.2746843,0.67042579 L 7.4526856,0.93781969 C 8.0080518,0.26253599 8.5302944,0.24806649 9.0194132,0.89441109 L 14.72657,1.1327056 z M 7.8705653,1.9621045 L 3.0790616,1.6948305 C 4.401133,2.9567387 5.9561207,4.0817588 7.7440247,5.0698908 C 7.9126336,3.9254891 7.9548137,2.8895605 7.8705653,1.9621045 z " />
</svg>