<!-- Created with Inkscape (http://www.inkscape.org/) -->
<svg viewBox="-0.7 10.7 19.6 8"
   xmlns="http://www.w3.org/2000/svg">
  <path
     d="M 3.2859595,16.653656 C 2.6270257,16.271467 2.0208084,16.060612 1.4673075,16.021080 C 0.91380655,15.981537 0.64363748,16.192403 0.65682204,16.653656 C 0.64363748,17.128082 0.91380655,17.348828 1.4673075,17.315883 C 2.0208084,17.282938 2.6270257,17.062192 3.2859595,16.653656 z M 3.9383065,13.332629 C 2.7390454,13.793881 1.8066601,14.031094 1.1411394,14.044279 C 0.47560789,14.057453 0.090136580,13.615971 -0.015296317,12.719824 C 0.063778356,11.889568 0.45584740,11.461260 1.1608999,11.434902 C 1.8659633,11.408544 2.7917619,11.645757 3.9383065,12.146552 L 14.731633,12.146552 C 16.141749,12.107009 17.107090,12.522143 17.627646,13.391932 C 18.148202,14.261721 18.148202,15.131520 17.627646,16.001309 C 17.107090,16.871098 16.141749,17.292818 14.731633,17.266460 L 3.9383065,17.266460 C 2.7390454,17.727713 1.8066601,17.964926 1.1411394,17.978110 C 0.47560789,17.991284 0.090136580,17.549803 -0.015296317,16.653656 C 0.063778356,15.823399 0.45584740,15.395091 1.1608999,15.368733 C 1.8659633,15.342375 2.7917619,15.579588 3.9383065,16.080384 L 15.364209,16.080384 C 16.313072,15.909061 16.784205,15.428037 16.777618,14.637312 C 16.771031,13.846598 16.299898,13.411703 15.364209,13.332629 L 3.9383065,13.332629 z M 3.2859595,12.719824 C 2.6270257,12.337636 2.0208084,12.126781 1.4673075,12.087249 C 0.91380655,12.047706 0.64363748,12.258572 0.65682204,12.719824 C 0.64363748,13.194251 0.91380655,13.414997 1.4673075,13.382052 C 2.0208084,13.349107 2.6270257,13.128361 3.2859595,12.719824 z "
     style="fill:currentColor;stroke:none" />
</svg>