<svg viewBox="0 0 676.05157 900.07861"
   xmlns="http://www.w3.org/2000/svg"
   version="1.1">

  <path
     style="color:#000000;font-style:normal;font-variant:normal;font-weight:normal;font-stretch:normal;font-size:medium;line-height:normal;font-family:sans-serif;text-indent:0;text-align:start;text-decoration:none;text-decoration-line:none;text-decoration-style:solid;text-decoration-color:#000000;letter-spacing:normal;word-spacing:normal;text-transform:none;direction:ltr;block-progression:tb;writing-mode:lr-tb;baseline-shift:baseline;text-anchor:start;white-space:normal;clip-rule:nonzero;display:inline;overflow:visible;visibility:visible;opacity:1;isolation:auto;mix-blend-mode:normal;color-interpolation:sRGB;color-interpolation-filters:linearRGB;solid-color:#000000;solid-opacity:1;fill:currentColor;fill-opacity:1;fill-rule:nonzero;stroke:none;stroke-width:80;stroke-linecap:butt;stroke-linejoin:miter;stroke-miterlimit:4;stroke-dasharray:none;stroke-dashoffset:0;stroke-opacity:1;marker:none;color-rendering:auto;image-rendering:auto;shape-rendering:auto;text-rendering:auto;enable-background:accumulate"
     d="M 336.74219 0 L 336.74219 0.017578125 C 247.99205 0.71743322 162.22347 35.423206 100.18945 104.66992 C 37.557157 174.58448 0.04709731 277.77611 0 410.39648 L 0 410.40234 L 0 900.07812 L 80 900.07812 L 80 410.42383 L 80 410.41016 C 80.044365 292.70614 112.57718 210.73673 159.77539 158.05078 C 206.67551 105.69759 268.97714 80.369288 338.02734 80.015625 C 407.07675 80.369759 469.37572 105.69808 516.27539 158.05078 C 563.47547 210.73881 596.00898 292.71246 596.05078 410.42383 L 596.05078 900.07812 L 676.05078 900.07812 L 676.05078 410.40234 L 676.05078 410.39648 C 676.00371 277.77625 638.49363 174.58448 575.86133 104.66992 C 513.82731 35.423206 428.06065 0.71743322 339.31055 0.017578125 L 339.31055 0 C 338.88264 0.0002112405 338.45512 0.0060220205 338.02734 0.0078125 C 337.59891 0.006016888 337.17075 0.00021156201 336.74219 0 z " />
</svg>