<svg viewBox="0 0 8.108701 17.977583"
   xmlns="http://www.w3.org/2000/svg">
  <path
     style="fill:currentColor; stroke:none"
     d="M 4.0625,0 C 3.1791133,0 2.369946,0.26704002 1.625,0.78125 C 0.88005467,1.2954607 0.329622,2.1161007 0,3.25 L 1.90625,3.375 C 1.8666953,3.585958 1.84375,3.8168673 1.84375,4.09375 C 1.84375,4.9507673 2.318754,5.9188399 3.28125,7 C 2.8988887,7.7383533 2.610302,8.3841203 2.625,9.25 C 2.5934424,10.557903 2.9398993,10.992557 3.375,12.21875 L 0.84375,17.96875 L 2.15625,17.96875 L 4.0625,13.21875 L 5.9375,17.96875 L 7.28125,17.96875 L 4.75,12.21875 C 5.1851007,10.992557 5.4834489,10.591622 5.46875,9.25 C 5.4834487,8.3841203 5.2080459,7.7383532 4.8125,7 C 5.7881807,5.91884 6.2812499,4.9507673 6.28125,4.09375 C 6.28125,3.8168673 6.2402394,3.585958 6.1875,3.375 L 8.09375,3.25 C 7.764128,2.1161007 7.2515388,1.2954607 6.5,0.78125 C 5.748462,0.26704 4.9327021,0 4.0625,0 z M 4.0696395,0.43284185 C 5.6554514,0.42380742 7.004304,1.606761 7.4794358,2.7792008 L 6.0409255,2.9904807 C 5.6776679,2.2697316 4.9432662,1.8684214 3.96875,1.875 C 3.0389374,1.8813314 2.3103073,2.3549966 2.0504447,2.9904807 L 0.63451927,2.6684614 C 1.2478892,1.3574492 2.6667056,0.44073862 4.0696395,0.43284185 z M 4.0625,3.03125 C 4.6426347,3.03125 4.9375,3.3949513 4.9375,4.09375 C 4.9375,4.726624 4.6426348,5.4047112 4.0625,6.15625 C 3.4823653,5.4047113 3.1874999,4.726624 3.1875,4.09375 C 3.1875,3.3949513 3.4823654,3.03125 4.0625,3.03125 z M 4.0625,7.96875 C 4.5398755,8.6700773 4.6948836,9.8294213 4.0625,11 C 3.6517981,10.090151 3.5156962,8.9731412 4.0625,7.96875 z " />
</svg>