<!-- Created with Inkscape (http://www.inkscape.org/) -->
<svg viewBox="-85.2 1094.6 1972.8 795"
   xmlns="http://www.w3.org/2000/svg">
  <g />
  <g
     style="display:inline">
    <path
       d="M 17.875000,1167.6875 C 1.3071437,1167.6892 -12.123343,1181.1196 -12.125000,1197.6875 C -12.125000,1345.8361 118.51805,1496.1990 294.18750,1614.0312 C 469.85695,1731.8635 694.66426,1816.5625 901.18750,1816.5625 C 1107.7107,1816.5625 1332.5493,1731.8635 1508.2188,1614.0312 C 1683.8882,1496.1990 1814.5312,1345.8361 1814.5312,1197.6875 C 1814.5295,1181.1196 1801.0991,1167.6892 1784.5312,1167.6875 L 17.875000,1167.6875 z M 50.500000,1227.6875 L 1751.8750,1227.6875 C 1734.1360,1333.3689 1626.9530,1462.1166 1474.7812,1564.1875 C 1307.8818,1676.1372 1091.0480,1756.5625 901.18750,1756.5625 C 711.32701,1756.5625 494.49320,1676.1372 327.59375,1564.1875 C 175.42198,1462.1166 68.238976,1333.3689 50.500000,1227.6875 z "
       style="color:#000000;fill:currentColor;fill-opacity:1.0000000;fill-rule:evenodd;stroke:none;stroke-width:60.000000;stroke-linecap:butt;stroke-linejoin:round;stroke-miterlimit:4.0000000;stroke-dashoffset:0.0000000;stroke-opacity:1.0000000;marker:none;marker-start:none;marker-mid:none;marker-end:none;visibility:visible;display:inline;overflow:visible" />
  </g>
</svg>