<!-- Created with Inkscape (http://www.inkscape.org/) -->
<svg viewBox="-72.6 1309.6 1960.5 569.9"
   xmlns="http://www.w3.org/2000/svg"
   version="1.0">
  <g>
    <path
       style="opacity:0.99415205;fill:currentColor;fill-opacity:1;fill-rule:nonzero;stroke:none;stroke-width:59.35153198;stroke-linecap:butt;stroke-linejoin:round;stroke-miterlimit:4;stroke-dasharray:none;stroke-opacity:1;display:inline"
       d="M 31.8125,1382.1875 C 20.214278,1382.1741 9.6634577,1388.9024 4.8125,1399.4375 C -0.038457851,1409.9725 1.6993841,1422.3837 9.25,1431.1875 C 223.69531,1681.4719 451.29884,1806.875 816.40625,1806.875 C 1171.7915,1806.875 1414.5336,1686.4097 1648.6562,1453.6875 C 1656.7244,1475.987 1660.7188,1511.0913 1660.7188,1572.7188 C 1662.1782,1641.257 1661.6527,1754.8541 1751.5938,1762.8125 C 1814.8635,1749.7892 1814.808,1682.1785 1815.2188,1629.5625 C 1815.2188,1564.8595 1799.3867,1506.1922 1772.9688,1461.625 C 1746.5508,1417.0578 1707.4534,1383.875 1660.0938,1383.875 L 31.8125,1382.1875 z M 98.03125,1441.625 L 1574.2188,1443.2188 C 1358.564,1647.6251 1142.3048,1747.5312 816.40625,1747.5312 C 489.14459,1747.5311 291.12098,1650.085 98.03125,1441.625 z M 1715.5938,1482.1875 C 1745.9454,1525.2053 1753.2913,1578.379 1755.875,1629.5625 C 1754.732,1653.7644 1756.5662,1679.9476 1746.5312,1702.6562 C 1718.1802,1674.4348 1720.693,1609.2393 1720.0625,1572.7188 C 1720.0625,1536.7388 1718.8469,1507.2527 1715.5938,1482.1875 z " />
  </g>
</svg>