<svg viewBox="-71.8 -66.9 1231.6 1937.9"
   xmlns="http://www.w3.org/2000/svg"
   version="1.1">
  <path
     style="fill:currentColor;stroke:none"
     d="M 150.59375 4.875 L 108.6875 83.65625 L 333.09375 203.3125 L 36.90625 203.3125 C 12.307498 203.3125 0 219.61077 0 252.1875 C -4.7369516e-15 282.76973 12.307498 298.0625 36.90625 298.0625 L 89.75 298.0625 C 119.00257 298.0625 134.63051 306.71439 136.625 324 C 191.80598 559.35023 228.69723 727.20425 247.3125 827.59375 C 282.54855 1021.7244 300.15625 1184.2783 300.15625 1315.25 C 300.15625 1444.2272 289.18943 1546.2803 267.25 1621.4062 C 244.64575 1695.8676 233.34375 1738.4252 233.34375 1749.0625 C 232.01408 1782.9689 242.00665 1799.2672 263.28125 1797.9375 L 826.71875 1797.9375 C 845.33402 1799.2672 854.625 1782.9689 854.625 1749.0625 C 854.625 1738.4252 843.65818 1695.8674 821.71875 1621.4062 C 799.11449 1546.2803 787.8125 1444.2272 787.8125 1315.25 C 787.8125 1184.2783 805.45145 1021.7244 840.6875 827.59375 C 859.30277 727.20425 895.52368 559.35023 949.375 324 C 952.69916 306.71439 967.99193 298.0625 995.25 298.0625 L 1051.0938 298.0625 C 1075.6925 298.0625 1088 282.76973 1088 252.1875 C 1088 219.61077 1075.6925 203.3125 1051.0938 203.3125 L 755.90625 203.3125 L 977.3125 83.65625 L 938.40625 4.875 L 707.0625 122.5625 C 682.46375 78.018816 628.60389 55.75 545.5 55.75 C 463.72577 55.75 408.86041 78.018816 380.9375 122.5625 L 150.59375 4.875 z M 545.5 129.53125 C 596.02717 129.53125 632.91841 154.115 656.1875 203.3125 L 431.8125 203.3125 C 453.75193 154.115 491.64868 129.53125 545.5 129.53125 z M 228.375 298.0625 L 861.625 298.0625 L 775.84375 711.9375 L 312.125 711.9375 C 305.47669 667.39381 277.57251 529.42373 228.375 298.0625 z M 328.09375 799.6875 L 755.90625 799.6875 C 747.92827 858.19264 739.30763 917.3527 730 977.1875 C 708.72541 1126.7745 699.73835 1261.3929 703.0625 1381.0625 C 707.05149 1500.0672 719.02382 1608.1222 738.96875 1705.1875 L 347.03125 1705.1875 C 368.30584 1608.1222 380.94851 1500.0672 384.9375 1381.0625 C 388.92649 1261.3929 379.93943 1126.7745 358 977.1875 C 347.36271 906.7154 337.40139 847.55534 328.09375 799.6875 z " />
</svg>