<svg viewBox="0 0 7.954737 7.92"
   xmlns="http://www.w3.org/2000/svg">
  <path
     style="fill:currentColor; stroke:none"
     d=" M 6.252631 1.285263  Q 6.895264 1.65 7.416317 2.475  Q 7.937369 3.3 7.954737 4.307368  Q 7.954737 5.453684 6.982106 6.643421  Q 6.009474 7.833158 3.977368 7.92  Q 1.927895 7.833158 0.963947 6.643421  Q 0 5.453684 0 4.29  Q 0.017368 3.3 0.538421 2.483685  Q 1.059474 1.667369 1.684737 1.302632  L 1.684737 0  L 6.252631 0  L 6.252631 1.285263  Z  M 5.453684 1.128947  L 5.453684 0.573158  L 2.518421 0.573158  L 2.518421 1.128947  L 5.453684 1.128947  Z  M 3.977368 1.667369  Q 1.87579 1.667369 1.302632 2.605263  Q 0.729474 3.543158 0.729474 4.307368  Q 0.729474 5.453684 1.684737 6.322105  Q 2.64 7.190526 3.977368 7.190526  Q 5.297369 7.190526 6.252631 6.322105  Q 7.207895 5.453684 7.225263 4.29  Q 7.225263 3.543158 6.521842 2.605263  Q 5.818421 1.667369 3.977368 1.667369  Z " />
</svg>