<!-- Created with Inkscape (http://www.inkscape.org/) -->
<svg viewBox="-0.063 13.719 8.688 4.438"
   xmlns="http://www.w3.org/2000/svg">
  <g>
    <path
       d="M 4.2500000,13.718750 C 2.9914931,13.718750 1.6373634,14.300137 0.84375000,15.093750 C 0.029756845,15.907743 -0.062500000,16.979359 -0.062500000,17.781250 L -0.062500000,18.093750 L 8.5625000,18.093750 L 8.5625000,17.781250 C 8.5625000,16.979358 8.5014936,15.907743 7.6875000,15.093750 C 6.8938870,14.300137 5.5085073,13.718750 4.2500000,13.718750 z M 4.2500000,14.312500 C 5.3108485,14.312500 6.6387130,14.857463 7.2812500,15.500000 C 7.8434033,16.062153 7.9168942,16.807462 7.9375000,17.500000 L 0.59375000,17.500000 C 0.61435582,16.807463 0.68784689,16.062153 1.2500000,15.500000 C 1.8925374,14.857463 3.1891517,14.312500 4.2500000,14.312500 z "
       style="opacity:0.99415207;fill:currentColor;fill-opacity:1.0000000;fill-rule:nonzero;stroke:none;stroke-width:0.60000002;stroke-linecap:butt;stroke-linejoin:miter;stroke-miterlimit:4.0000000;stroke-opacity:1.0000000;display:inline" />
  </g>
</svg>