<svg viewBox="0 0 613.79999 906.4837"
   version="1.1"
   xmlns="http://www.w3.org/2000/svg">
  <path
     d="m 306.89999,93.630781 c 53.78659,0 94.95937,18.025109 109.15515,71.004479 33.05747,123.37215 54.8391,246.69431 93.33557,379.57993 H 107.5732 c 33.95494,-126.51063 71.41603,-233.78263 96.49947,-379.57993 6.07759,-35.32597 47.98609,-71.004479 102.82732,-71.004479 z M 509.39071,623.31313 C 490.4072,718.23067 440.83916,770.58271 360.68659,824.36924 H 262.60515 C 180.34329,770.58271 128.66597,718.23067 107.5732,623.31313 Z M 313.21482,0 c -1.04597,0 -2.09628,0.00713 -3.15092,0.021381 -79.09793,0 -133.41185,38.494333 -162.94175,115.482999 -10.54638,26.36595 -27.68428,88.85333 -51.413696,187.46214 C 71.979105,401.57526 40.076287,482.5188 0,545.79714 v 77.51599 c 40.076287,91.75356 78.834294,159.77777 116.27402,204.07263 37.43965,44.29486 79.88886,70.66084 127.34762,79.09794 h 134.4665 c 46.40412,-7.38246 88.32601,-33.48473 125.76567,-78.30681 37.43971,-44.82228 74.08844,-113.1102 109.94618,-204.86376 V 544.21519 C 577.94225,481.99148 531.01081,338.56056 473.00566,113.92242 442.83444,37.97414 389.57083,0 313.21482,0 Z"
     style="fill:currentColor;stroke:none;stroke-width:100.004" />
</svg>