<!-- Created with Inkscape (http://www.inkscape.org/) -->
<svg viewBox="-73.3 1332.1 1951.3 540.5"
   xmlns="http://www.w3.org/2000/svg">
  <g
     style="display:inline">
    <path
       style="fill:currentColor;fill-opacity:1;fill-rule:evenodd;stroke:none;stroke-width:60.14870071;stroke-linecap:butt;stroke-linejoin:miter;stroke-miterlimit:4;stroke-dasharray:none;stroke-opacity:1"
       d="M 649.90625,1404.375 L 607.4375,1446.9688 L 749.59375,1588.75 L -1,1588.75 L -1,1800.3438 L 1805.75,1800.3438 L 1805.75,1588.75 L 1077.8125,1588.75 L 1219.9688,1446.9688 L 1177.4688,1404.375 L 1046.0312,1535.4688 C 1038.1467,1456.0084 983.70699,1437.7726 913.6875,1435.5 C 838.89269,1437.4988 792.97529,1454.4116 781.34375,1535.4688 L 649.90625,1404.375 z M 913.6875,1495.6562 C 942.97631,1495.6563 960.62094,1500.6235 969.75,1505.8125 C 996.33521,1522.7878 983.65772,1563.3946 979.375,1588.75 L 848,1588.75 C 844.84336,1562.8172 830.50201,1523.2413 857.65625,1505.8125 C 866.78532,1500.6235 884.39868,1495.6562 913.6875,1495.6562 z M 59.15625,1648.9062 L 183.8125,1648.9062 L 183.8125,1740.1875 L 59.15625,1740.1875 L 59.15625,1648.9062 z M 213.8125,1648.9062 L 831.34375,1648.9062 L 831.34375,1740.1875 L 213.8125,1740.1875 L 213.8125,1648.9062 z M 861.34375,1648.9062 L 981.5,1648.9062 L 981.5,1740.1875 L 861.34375,1740.1875 L 861.34375,1648.9062 z M 1011.5,1648.9062 L 1584.4375,1648.9062 L 1584.4375,1740.1875 L 1011.5,1740.1875 L 1011.5,1648.9062 z M 1614.4375,1648.9062 L 1745.625,1648.9062 L 1745.625,1740.1875 L 1614.4375,1740.1875 L 1614.4375,1648.9062 z " />
  </g>
</svg>