<!-- Created with Inkscape (http://www.inkscape.org/) -->
<svg viewBox="-0.7 12.3 19.7 6.7"
   xmlns="http://www.w3.org/2000/svg">
  <g>
    <path
       d="M 0.71875000,13.000000 L 0.71875000,14.750000 L 0.062500000,14.750000 L 0.062500000,18.250000 L 18.281250,18.250000 L 18.281250,14.750000 L 17.750000,14.750000 L 17.750000,13.000000 L 17.156250,13.000000 L 17.156250,14.750000 L 15.687500,14.750000 L 15.687500,13.000000 L 15.093750,13.000000 L 15.093750,14.750000 L 13.625000,14.750000 L 13.625000,13.000000 L 13.031250,13.000000 L 13.031250,14.750000 L 11.593750,14.750000 L 11.593750,13.000000 L 10.968750,13.000000 L 10.968750,14.750000 L 9.5312500,14.750000 L 9.5312500,13.000000 L 8.9375000,13.000000 L 8.9375000,14.750000 L 7.4687500,14.750000 L 7.4687500,13.000000 L 6.8750000,13.000000 L 6.8750000,14.750000 L 5.4062500,14.750000 L 5.4062500,13.000000 L 4.8125000,13.000000 L 4.8125000,14.750000 L 3.3750000,14.750000 L 3.3750000,13.000000 L 2.7812500,13.000000 L 2.7812500,14.750000 L 1.3125000,14.750000 L 1.3125000,13.000000 L 0.71875000,13.000000 z M 0.65625000,15.343750 L 17.687500,15.343750 L 17.687500,17.656250 L 0.65625000,17.656250 L 0.65625000,15.343750 z "
       style="color:#000000;fill:currentColor;fill-opacity:1.0000000;fill-rule:nonzero;stroke:none;stroke-width:0.60000002;stroke-linecap:butt;stroke-linejoin:miter;stroke-miterlimit:4.0000000;stroke-dashoffset:0.0000000;stroke-opacity:1.0000000;marker:none;marker-start:none;marker-mid:none;marker-end:none;visibility:visible;display:inline;overflow:visible" />
  </g>
</svg>